<?xml version="1.0" standalone="no"?>
<!DOCTYPE svg PUBLIC "-//W3C//DTD SVG 20010904//EN"
 "http://www.w3.org/TR/2001/REC-SVG-20010904/DTD/svg10.dtd">
<svg version="1.0" xmlns="http://www.w3.org/2000/svg"
 width="496.000000pt" height="496.000000pt" viewBox="0 0 496.000000 496.000000"
 preserveAspectRatio="xMidYMid meet">
<metadata>
Created by potrace 1.14, written by Peter Selinger 2001-2017
</metadata>
<g transform="translate(0.000000,496.000000) scale(0.100000,-0.100000)"
fill="#000000" stroke="none">
<path d="M2422 4940 c-51 -23 -147 -118 -337 -335 -33 -37 -69 -78 -80 -89
-11 -12 -74 -84 -140 -161 -66 -77 -124 -145 -130 -151 -5 -6 -32 -38 -60 -70
-27 -32 -66 -77 -86 -99 -29 -33 -124 -145 -211 -250 -40 -48 -152 -182 -172
-205 -11 -14 -46 -56 -76 -95 -30 -38 -57 -72 -61 -75 -20 -15 -271 -361 -311
-427 -125 -211 -198 -397 -243 -621 -34 -168 -40 -235 -40 -437 0 -173 5 -246
25 -365 5 -30 12 -71 15 -90 31 -190 78 -277 170 -316 93 -39 393 -100 585
-119 72 -7 297 -8 308 -1 4 2 32 7 62 11 56 7 363 82 455 112 58 18 91 45 110
89 34 83 -49 186 -137 170 -14 -2 -58 -13 -99 -25 -206 -56 -315 -82 -414 -96
-46 -7 -240 -7 -270 -1 -11 2 -49 7 -85 11 -36 4 -67 8 -70 10 -3 2 -27 6 -55
10 -70 9 -258 55 -271 66 -6 5 -14 24 -17 42 -3 17 -13 70 -21 117 -27 143
-31 199 -30 380 0 188 4 230 35 385 54 263 159 484 352 740 111 147 476 597
507 625 3 3 66 77 140 165 74 88 137 162 140 165 3 3 32 36 65 75 33 38 65 75
70 81 6 6 31 35 57 65 25 30 58 68 73 84 14 17 45 52 68 79 23 27 53 60 67 75
14 14 56 61 95 104 l69 79 26 -30 c14 -17 162 -194 330 -394 167 -199 314
-374 326 -388 12 -14 57 -65 99 -115 89 -103 185 -213 200 -229 6 -6 55 -63
110 -126 55 -63 102 -117 105 -120 3 -3 44 -52 92 -110 254 -311 394 -613 433
-930 3 -25 8 -159 12 -299 l6 -254 -44 30 c-140 94 -280 146 -449 168 -50 6
-231 7 -270 1 -14 -2 -47 -7 -75 -11 -98 -13 -551 -139 -739 -205 -33 -11 -62
-20 -66 -20 -4 0 -7 102 -6 226 l1 226 110 57 c134 68 185 103 258 176 31 30
59 55 62 55 4 0 -6 -22 -22 -50 -54 -93 -150 -182 -265 -245 -38 -20 -68 -38
-68 -40 0 -6 201 4 235 11 57 11 135 57 189 108 48 46 76 83 218 286 25 36 69
86 97 112 28 26 51 52 51 57 0 11 -158 63 -249 82 -30 6 -96 9 -148 7 -122 -7
-196 -41 -278 -130 -59 -64 -129 -192 -162 -295 -9 -28 -19 -50 -22 -49 -5 3
-5 162 -2 528 l1 58 82 41 c97 49 127 69 193 131 27 26 51 45 54 43 8 -9 -53
-91 -103 -138 -28 -27 -77 -63 -108 -80 -32 -18 -58 -35 -58 -39 0 -10 159 0
200 14 92 30 157 94 280 278 24 36 66 86 92 111 56 52 54 56 -31 84 -292 95
-457 23 -567 -246 l-34 -84 1 300 0 300 67 32 c37 18 91 54 121 80 38 33 50
40 41 23 -23 -42 -99 -117 -145 -141 -25 -13 -45 -27 -45 -30 0 -15 132 2 174
21 51 25 74 49 158 168 35 48 75 98 90 110 16 13 26 28 23 33 -11 17 -142 50
-205 51 -73 1 -120 -15 -166 -58 -41 -38 -69 -80 -93 -140 l-20 -49 -1 190
c-2 212 -2 216 -24 250 -24 37 -61 57 -105 58 -51 1 -86 -18 -112 -59 -19 -32
-20 -49 -20 -469 0 -275 -3 -433 -9 -430 -6 4 -10 12 -10 19 0 46 -87 163
-144 193 -44 23 -136 25 -217 3 -90 -23 -99 -32 -64 -62 15 -12 56 -64 91
-115 92 -132 145 -167 254 -172 l65 -2 -45 27 c-59 36 -110 85 -134 126 l-19
33 23 -20 c14 -11 36 -30 50 -43 13 -12 55 -38 92 -57 l67 -36 0 -249 c-1
-138 -2 -250 -4 -250 -2 0 -13 21 -26 48 -52 107 -139 192 -223 217 -95 28
-270 10 -393 -41 -38 -17 -37 -20 21 -74 24 -22 69 -79 101 -127 64 -95 137
-188 170 -215 57 -49 140 -75 245 -79 98 -2 99 -1 25 39 -79 42 -178 135 -214
202 l-25 45 50 -44 c27 -25 51 -48 54 -51 12 -14 99 -70 156 -98 l61 -31 -2
-283 c-2 -156 -4 -287 -4 -293 -1 -5 -19 33 -40 85 -53 131 -85 182 -150 250
-133 136 -291 155 -572 69 -107 -32 -109 -37 -50 -87 28 -24 72 -73 98 -110
144 -206 187 -263 226 -299 53 -49 119 -88 172 -102 54 -14 245 -22 245 -10 0
5 -4 9 -10 9 -22 0 -153 87 -209 139 -56 52 -131 153 -131 175 0 6 24 -12 53
-40 92 -89 142 -123 290 -195 l77 -39 0 -73 c0 -120 9 -164 42 -199 27 -29 31
-30 91 -25 36 3 124 26 212 56 137 46 492 155 540 166 11 2 54 13 95 24 111
30 184 40 300 41 186 2 301 -36 499 -164 104 -68 148 -87 200 -88 61 0 104 22
136 70 49 74 54 121 50 442 -4 342 -7 387 -45 565 -40 188 -154 451 -276 636
-67 102 -199 269 -309 393 -5 6 -37 43 -70 81 -33 39 -62 72 -65 75 -7 7 -121
138 -151 174 -13 16 -29 34 -34 40 -101 112 -194 223 -510 601 -333 400 -378
450 -434 489 -58 40 -101 47 -149 26z"/>
<path d="M3265 1225 c-131 -18 -160 -23 -249 -46 -81 -20 -304 -92 -341 -109
-11 -5 -74 -30 -140 -55 -66 -26 -201 -77 -300 -115 -312 -119 -487 -171 -681
-204 -150 -25 -249 -37 -429 -51 -117 -9 -190 -17 -198 -22 -10 -6 16 -48 52
-84 65 -65 368 -257 544 -343 200 -98 365 -146 567 -165 98 -9 487 -7 550 3
19 3 53 8 75 11 210 32 473 133 672 257 250 155 556 442 616 577 22 51 19 119
-8 171 -42 82 -155 152 -285 177 -54 11 -360 9 -445 -2z"/>
</g>
</svg>
