<svg width="794" height="795" viewBox="0 0 794 795" fill="none" xmlns="http://www.w3.org/2000/svg">
<path d="M786.975 389.476C786.986 390.48 786.993 391.485 786.997 392.491L786.497 392.492C786.499 392.995 786.5 393.497 786.5 394C786.5 394.502 786.499 395.004 786.497 395.506L786.997 395.508C786.993 396.514 786.986 397.519 786.975 398.523L786.475 398.517C786.471 398.861 786.466 399.204 786.462 399.548C786.453 400.207 786.442 400.865 786.43 401.523L786.93 401.532C786.911 402.534 786.888 403.536 786.862 404.536L786.362 404.523C786.336 405.522 786.306 406.52 786.272 407.517L786.772 407.534C786.739 408.533 786.701 409.53 786.66 410.527L786.161 410.506C786.142 410.954 786.123 411.401 786.103 411.848C786.078 412.396 786.053 412.943 786.026 413.49L786.526 413.514C786.477 414.516 786.424 415.518 786.368 416.519L785.869 416.491C785.85 416.823 785.831 417.155 785.812 417.487C785.772 418.156 785.731 418.825 785.688 419.494L786.187 419.526C786.123 420.527 786.056 421.527 785.984 422.527L785.486 422.491C785.459 422.861 785.432 423.231 785.405 423.6C785.358 424.228 785.31 424.855 785.261 425.482L785.759 425.521C785.68 426.518 785.598 427.515 785.511 428.51L785.013 428.466C784.97 428.97 784.925 429.473 784.88 429.976C784.835 430.466 784.79 430.956 784.744 431.445L785.242 431.492C785.148 432.485 785.051 433.478 784.95 434.469L784.452 434.418C784.35 435.417 784.245 436.415 784.136 437.412L784.633 437.467C784.523 438.465 784.41 439.462 784.293 440.457L783.797 440.399C783.68 441.394 783.56 442.387 783.436 443.379L783.932 443.441C783.807 444.435 783.68 445.427 783.548 446.418L783.052 446.353C782.921 447.343 782.786 448.331 782.647 449.319L783.142 449.389C783.003 450.377 782.861 451.365 782.714 452.352L782.22 452.278C782.092 453.138 781.962 453.997 781.829 454.855L781.769 455.241L782.263 455.319C782.108 456.311 781.949 457.302 781.787 458.292L781.294 458.211C781.132 459.2 780.966 460.188 780.796 461.174L781.289 461.258C781.12 462.246 780.946 463.232 780.769 464.217L780.277 464.129C780.217 464.464 780.156 464.799 780.095 465.135C779.977 465.782 779.857 466.429 779.736 467.076L780.228 467.168C780.043 468.15 779.855 469.132 779.664 470.111L779.173 470.015C778.982 470.994 778.787 471.971 778.589 472.947L779.078 473.047C778.878 474.031 778.675 475.013 778.467 475.994L777.978 475.89C777.771 476.871 777.56 477.85 777.345 478.828L777.834 478.935C777.619 479.914 777.4 480.892 777.178 481.869L776.691 481.758C776.469 482.733 776.243 483.707 776.014 484.679L776.501 484.794C776.272 485.767 776.039 486.739 775.802 487.71L775.316 487.592C775.08 488.561 774.84 489.53 774.597 490.496L775.082 490.618C774.838 491.589 774.59 492.557 774.338 493.525L773.854 493.399C773.732 493.87 773.608 494.341 773.484 494.811C773.353 495.31 773.22 495.808 773.087 496.305L773.57 496.435C773.31 497.403 773.047 498.37 772.78 499.336L772.298 499.203C772.031 500.167 771.761 501.13 771.488 502.091L771.968 502.228C771.694 503.191 771.417 504.152 771.136 505.111L770.656 504.971C770.375 505.929 770.091 506.886 769.803 507.841L770.282 507.985C769.993 508.942 769.702 509.897 769.406 510.85L768.929 510.702C768.632 511.659 768.332 512.615 768.029 513.568L768.505 513.72C768.201 514.676 767.894 515.63 767.583 516.582L767.107 516.427C766.998 516.763 766.888 517.098 766.777 517.433C766.574 518.048 766.37 518.662 766.164 519.276L766.638 519.435C766.32 520.384 765.999 521.332 765.673 522.278L765.201 522.115C764.876 523.06 764.548 524.003 764.216 524.945L764.687 525.111C764.355 526.054 764.02 526.995 763.681 527.935L763.21 527.765C762.871 528.705 762.528 529.644 762.182 530.581L762.651 530.754C762.303 531.695 761.952 532.634 761.597 533.571L761.129 533.394C760.775 534.33 760.417 535.265 760.056 536.198L760.522 536.378C760.161 537.312 759.796 538.244 759.427 539.175L758.962 538.99C758.594 539.92 758.223 540.847 757.848 541.773L758.311 541.961C757.936 542.888 757.557 543.813 757.175 544.736L756.713 544.545C756.519 545.013 756.325 545.481 756.129 545.948C755.939 546.401 755.749 546.854 755.558 547.307L756.018 547.502C755.627 548.425 755.233 549.347 754.836 550.267L754.377 550.069C753.98 550.988 753.58 551.905 753.176 552.82L753.633 553.022C753.229 553.939 752.822 554.853 752.411 555.766L751.955 555.561C751.544 556.472 751.13 557.382 750.713 558.29L751.168 558.499C750.75 559.408 750.329 560.315 749.904 561.22L749.452 561.008C749.028 561.912 748.601 562.814 748.17 563.715L748.621 563.93C748.189 564.834 747.754 565.736 747.315 566.635L746.865 566.416C746.645 566.869 746.423 567.322 746.2 567.774C745.981 568.22 745.76 568.665 745.539 569.11L745.987 569.332C745.541 570.229 745.092 571.124 744.64 572.017L744.193 571.791C743.742 572.683 743.286 573.573 742.828 574.461L743.272 574.691C742.813 575.58 742.351 576.467 741.885 577.352L741.443 577.119C740.977 578.004 740.509 578.886 740.038 579.766L740.478 580.002C740.006 580.884 739.53 581.764 739.051 582.642L738.612 582.402C738.132 583.281 737.65 584.157 737.164 585.032L737.601 585.275C737.114 586.15 736.625 587.024 736.132 587.896L735.696 587.649C735.204 588.52 734.708 589.388 734.21 590.254L734.643 590.504C734.143 591.371 733.641 592.237 733.135 593.1L732.704 592.847C732.198 593.709 731.69 594.569 731.179 595.427L731.608 595.683C731.096 596.542 730.581 597.399 730.062 598.253L729.635 597.994C729.115 598.85 728.593 599.703 728.068 600.554L728.493 600.817C727.967 601.669 727.438 602.52 726.906 603.368L726.482 603.102C725.951 603.949 725.416 604.794 724.878 605.637L725.299 605.906C724.761 606.749 724.219 607.591 723.674 608.43L723.255 608.158C722.954 608.621 722.653 609.083 722.35 609.545C722.105 609.919 721.859 610.293 721.613 610.666L722.03 610.942C721.479 611.776 720.925 612.609 720.368 613.44L719.953 613.161C719.396 613.991 718.835 614.82 718.272 615.645L718.685 615.927C718.121 616.755 717.553 617.58 716.983 618.403L716.572 618.118C716.002 618.94 715.429 619.759 714.854 620.577L715.262 620.865C714.686 621.683 714.106 622.499 713.523 623.313L713.117 623.022C712.535 623.834 711.95 624.645 711.362 625.453L711.767 625.747C711.178 626.556 710.586 627.363 709.992 628.167L709.59 627.87C708.995 628.674 708.398 629.475 707.798 630.274L708.198 630.574C707.596 631.375 706.992 632.174 706.385 632.97L705.987 632.666C705.381 633.461 704.771 634.254 704.159 635.044L704.554 635.351C703.94 636.142 703.324 636.931 702.705 637.717L702.312 637.408C701.694 638.193 701.073 638.976 700.448 639.757L700.839 640.069C700.214 640.851 699.586 641.63 698.955 642.406L698.567 642.091C698.258 642.472 697.949 642.851 697.639 643.23C697.316 643.625 696.993 644.018 696.668 644.411L697.054 644.729C696.417 645.502 695.777 646.272 695.134 647.039L694.751 646.718C694.109 647.485 693.464 648.249 692.816 649.01L693.197 649.334C692.548 650.097 691.897 650.857 691.242 651.614L690.864 651.287C690.211 652.044 689.554 652.798 688.895 653.549L689.271 653.879C688.611 654.632 687.948 655.381 687.283 656.129L686.909 655.796C686.245 656.542 685.577 657.286 684.907 658.028L685.278 658.363C684.606 659.105 683.932 659.845 683.255 660.583L682.887 660.244C682.211 660.981 681.531 661.715 680.85 662.446L681.216 662.787C680.533 663.519 679.848 664.249 679.16 664.976L678.796 664.632C678.109 665.358 677.419 666.081 676.727 666.802L677.087 667.149C676.394 667.87 675.697 668.589 674.998 669.306L674.641 668.957C674.447 669.155 674.253 669.354 674.058 669.552C673.553 670.068 673.046 670.582 672.538 671.095L672.893 671.447C672.189 672.158 671.482 672.866 670.772 673.572L670.42 673.218C669.711 673.922 668.999 674.625 668.285 675.324L668.635 675.681C667.92 676.382 667.202 677.079 666.482 677.774L666.135 677.414C665.415 678.108 664.693 678.8 663.968 679.488L664.313 679.851C663.587 680.54 662.859 681.227 662.128 681.911L661.786 681.546C661.056 682.229 660.324 682.909 659.589 683.587L659.928 683.954C659.192 684.633 658.453 685.308 657.712 685.981L657.376 685.611C657.209 685.762 657.043 685.913 656.877 686.063C656.302 686.583 655.726 687.101 655.148 687.618L655.481 687.99C654.735 688.657 653.987 689.322 653.235 689.983L652.905 689.608C652.155 690.268 651.402 690.926 650.647 691.581L650.974 691.959C650.218 692.614 649.459 693.267 648.698 693.917L648.373 693.537C647.613 694.186 646.85 694.833 646.085 695.476L646.407 695.859C645.64 696.503 644.872 697.145 644.1 697.783L643.782 697.398C643.012 698.035 642.24 698.67 641.465 699.301L641.781 699.689C641.005 700.321 640.227 700.95 639.447 701.577L639.134 701.187C638.355 701.813 637.573 702.435 636.789 703.055L637.099 703.447C636.313 704.068 635.526 704.686 634.736 705.3L634.428 704.906C633.639 705.52 632.848 706.131 632.054 706.739L632.358 707.136C631.563 707.744 630.766 708.35 629.966 708.953L629.665 708.554C628.867 709.155 628.067 709.754 627.264 710.35L627.562 710.751C626.759 711.347 625.953 711.941 625.145 712.531L624.85 712.127C624.515 712.372 624.179 712.616 623.843 712.86C623.37 713.203 622.896 713.545 622.422 713.886L622.714 714.292C621.901 714.876 621.086 715.457 620.269 716.035L619.98 715.627C619.568 715.919 619.155 716.209 618.742 716.499C618.337 716.783 617.931 717.067 617.525 717.35L617.81 717.76C616.989 718.332 616.164 718.901 615.338 719.467L615.055 719.054C614.626 719.348 614.195 719.642 613.764 719.935C613.368 720.204 612.971 720.472 612.574 720.739L612.853 721.154C612.024 721.713 611.192 722.268 610.358 722.821L610.082 722.404C609.674 722.674 609.266 722.944 608.857 723.212C608.431 723.492 608.004 723.772 607.577 724.05L607.85 724.469C607.011 725.015 606.171 725.558 605.328 726.099L605.058 725.678C604.216 726.217 603.372 726.753 602.526 727.286L602.793 727.709C601.946 728.243 601.096 728.774 600.245 729.301L599.982 728.876C599.131 729.403 598.279 729.927 597.424 730.447L597.684 730.874C596.83 731.394 595.974 731.911 595.116 732.425L594.859 731.996C594.002 732.509 593.143 733.018 592.282 733.525L592.535 733.956C591.673 734.463 590.808 734.967 589.942 735.468L589.692 735.035C588.826 735.535 587.959 736.032 587.089 736.526L587.336 736.961C586.466 737.455 585.593 737.946 584.718 738.434L584.474 737.998C584.074 738.221 583.673 738.444 583.271 738.666C582.797 738.928 582.323 739.19 581.847 739.45L582.088 739.888C581.21 740.369 580.331 740.846 579.449 741.32L579.213 740.88C578.333 741.353 577.452 741.823 576.569 742.289L576.802 742.731C575.918 743.198 575.031 743.662 574.143 744.123L573.913 743.679C573.025 744.139 572.136 744.595 571.245 745.048L571.472 745.494C570.579 745.948 569.685 746.399 568.789 746.846L568.565 746.398C567.67 746.845 566.773 747.288 565.874 747.728L566.094 748.178C565.195 748.618 564.294 749.055 563.39 749.488L563.174 749.037C562.274 749.469 561.373 749.898 560.469 750.323L560.682 750.775C559.778 751.201 558.871 751.623 557.963 752.042L557.753 751.588C556.846 752.007 555.937 752.422 555.026 752.834L555.232 753.289C554.32 753.702 553.406 754.11 552.49 754.516L552.287 754.059C551.373 754.464 550.456 754.865 549.538 755.264L549.737 755.722C548.818 756.121 547.896 756.516 546.973 756.908L546.778 756.448C545.859 756.838 544.939 757.224 544.017 757.607L544.209 758.069C543.286 758.453 542.361 758.833 541.435 759.209L541.246 758.746C540.321 759.122 539.394 759.495 538.465 759.864L538.65 760.329C537.72 760.698 536.789 761.065 535.855 761.427L535.674 760.961C534.742 761.324 533.808 761.683 532.872 762.038L533.05 762.505C532.113 762.861 531.175 763.214 530.234 763.563L530.06 763.094C529.124 763.441 528.185 763.786 527.245 764.126L527.415 764.596C526.476 764.937 525.536 765.273 524.593 765.607L524.427 765.135C523.485 765.468 522.543 765.797 521.598 766.123L521.761 766.596C520.816 766.922 519.868 767.245 518.92 767.564L518.76 767.09C517.812 767.409 516.863 767.725 515.912 768.036L516.068 768.511C515.116 768.824 514.162 769.132 513.207 769.437L513.055 768.961C512.101 769.266 511.146 769.567 510.189 769.864L510.338 770.342C509.384 770.638 508.43 770.931 507.474 771.22L507.329 770.741C506.374 771.03 505.418 771.316 504.46 771.597L504.601 772.077C503.641 772.359 502.681 772.638 501.718 772.913L501.581 772.432C500.62 772.707 499.658 772.978 498.694 773.245L498.827 773.727C497.862 773.995 496.895 774.259 495.927 774.52L495.797 774.037C494.83 774.297 493.862 774.554 492.892 774.807L493.018 775.291C492.051 775.543 491.082 775.792 490.112 776.037L489.989 775.553C489.023 775.797 488.055 776.038 487.085 776.275L487.204 776.76C486.234 776.998 485.262 777.232 484.288 777.462L484.173 776.975C483.201 777.205 482.228 777.431 481.253 777.654L481.364 778.141C480.388 778.364 479.41 778.583 478.431 778.799L478.324 778.311C477.346 778.526 476.367 778.738 475.387 778.946L475.491 779.435C474.51 779.643 473.527 779.848 472.544 780.049L472.444 779.559C471.468 779.758 470.491 779.954 469.512 780.146L469.609 780.636C468.629 780.828 467.648 781.017 466.666 781.202L466.573 780.711C465.592 780.895 464.61 781.076 463.626 781.254L463.715 781.746C462.73 781.923 461.744 782.097 460.757 782.268L460.672 781.775C459.686 781.945 458.699 782.111 457.71 782.274L457.791 782.767C456.801 782.93 455.81 783.089 454.818 783.245L454.741 782.751C454.474 782.793 454.207 782.834 453.94 782.875C453.22 782.987 452.499 783.096 451.777 783.203L451.851 783.698C450.864 783.845 449.877 783.988 448.888 784.127L448.818 783.632C447.831 783.772 446.842 783.907 445.852 784.039L445.918 784.535C444.927 784.667 443.935 784.795 442.942 784.92L442.879 784.424C441.887 784.548 440.894 784.669 439.899 784.786L439.958 785.283C438.962 785.4 437.965 785.514 436.967 785.623L436.913 785.126C435.916 785.236 434.918 785.342 433.919 785.444L433.97 785.942C432.978 786.043 431.986 786.141 430.992 786.235L430.945 785.737C429.954 785.831 428.961 785.921 427.967 786.008L428.01 786.506C427.015 786.592 426.019 786.675 425.022 786.754L424.983 786.256C424.482 786.296 423.981 786.334 423.48 786.372C422.984 786.41 422.488 786.446 421.992 786.482L422.027 786.98C421.028 787.052 420.028 787.12 419.027 787.184L418.995 786.685C417.995 786.749 416.994 786.81 415.992 786.866L416.02 787.366C415.019 787.422 414.018 787.475 413.015 787.524L412.99 787.025C411.997 787.073 411.003 787.118 410.007 787.159L410.028 787.659C409.031 787.7 408.034 787.737 407.035 787.771L407.019 787.272C406.021 787.305 405.023 787.335 404.024 787.362L404.037 787.861C403.037 787.888 402.036 787.91 401.033 787.929L401.024 787.429C400.376 787.441 399.728 787.452 399.08 787.461C398.726 787.466 398.372 787.471 398.018 787.475L398.024 787.974C397.02 787.986 396.015 787.993 395.009 787.997L395.007 787.497C394.505 787.499 394.003 787.5 393.5 787.5C392.998 787.5 392.496 787.499 391.994 787.497L391.992 787.997C390.986 787.993 389.981 787.986 388.977 787.974L388.983 787.475C387.98 787.463 386.978 787.448 385.977 787.429L385.968 787.929C384.966 787.91 383.964 787.888 382.964 787.862L382.977 787.362C381.978 787.335 380.98 787.305 379.983 787.272L379.966 787.771C378.967 787.737 377.97 787.7 376.973 787.659L376.994 787.159C376.603 787.143 376.212 787.126 375.821 787.109C375.218 787.082 374.614 787.054 374.011 787.025L373.986 787.524C372.984 787.475 371.982 787.422 370.981 787.366L371.009 786.866C370.007 786.81 369.006 786.749 368.006 786.685L367.974 787.184C366.973 787.12 365.973 787.052 364.974 786.981L365.009 786.482C364.011 786.41 363.014 786.335 362.019 786.256L361.979 786.754C360.982 786.675 359.986 786.592 358.991 786.506L359.034 786.008C358.04 785.921 357.047 785.831 356.056 785.737L356.009 786.235C355.015 786.141 354.023 786.043 353.031 785.942L353.082 785.444C352.083 785.342 351.085 785.236 350.088 785.127L350.034 785.624C349.036 785.514 348.039 785.4 347.043 785.283L347.102 784.786C346.107 784.669 345.114 784.548 344.122 784.424L344.059 784.92C343.066 784.795 342.074 784.667 341.083 784.535L341.149 784.039C340.159 783.907 339.17 783.772 338.183 783.632L338.113 784.128C337.124 783.988 336.136 783.845 335.15 783.698L335.224 783.204C334.235 783.056 333.247 782.905 332.26 782.751L332.183 783.245C331.191 783.089 330.199 782.93 329.21 782.767L329.291 782.274C328.302 782.111 327.315 781.945 326.329 781.775L326.244 782.268C325.257 782.097 324.27 781.923 323.286 781.746L323.374 781.254C322.391 781.076 321.409 780.895 320.428 780.711L320.335 781.202C319.353 781.017 318.372 780.828 317.392 780.636L317.488 780.146C316.51 779.954 315.533 779.758 314.557 779.559L314.457 780.049C313.474 779.848 312.491 779.643 311.51 779.435L311.614 778.946C310.634 778.738 309.655 778.526 308.677 778.311L308.569 778.799C307.591 778.584 306.613 778.364 305.637 778.141L305.748 777.654C304.773 777.431 303.8 777.205 302.828 776.975L302.713 777.462C301.739 777.232 300.767 776.998 299.797 776.76L299.915 776.275C298.946 776.038 297.978 775.797 297.012 775.553L296.889 776.038C295.919 775.792 294.95 775.543 293.983 775.291L294.109 774.807C293.139 774.554 292.171 774.297 291.204 774.037L291.074 774.52C290.105 774.259 289.139 773.995 288.173 773.727L288.307 773.245C287.343 772.978 286.381 772.707 285.42 772.432L285.282 772.913C284.32 772.638 283.359 772.359 282.4 772.077L282.541 771.598C281.583 771.316 280.627 771.031 279.672 770.742L279.527 771.22C278.571 770.931 277.616 770.638 276.663 770.342L276.812 769.865C275.855 769.567 274.899 769.266 273.946 768.961L273.794 769.438C272.838 769.133 271.885 768.824 270.933 768.512L271.088 768.037C270.137 767.725 269.188 767.409 268.241 767.091L268.081 767.565C267.132 767.245 266.185 766.922 265.239 766.596L265.402 766.124C264.458 765.798 263.515 765.468 262.574 765.135L262.407 765.607C261.465 765.273 260.524 764.937 259.585 764.596L259.756 764.126C258.815 763.786 257.877 763.442 256.94 763.094L256.766 763.563C255.826 763.214 254.887 762.862 253.951 762.506L254.128 762.038C253.193 761.683 252.259 761.324 251.326 760.962L251.145 761.428C250.212 761.065 249.28 760.699 248.35 760.329L248.535 759.864C247.606 759.495 246.679 759.122 245.754 758.746L245.566 759.209C244.639 758.833 243.715 758.453 242.792 758.069L242.984 757.608C242.062 757.225 241.141 756.838 240.223 756.448L240.027 756.908C239.104 756.516 238.183 756.121 237.264 755.723L237.462 755.264C236.544 754.866 235.628 754.464 234.713 754.059L234.511 754.516C233.595 754.111 232.681 753.702 231.769 753.29L231.975 752.834C231.064 752.422 230.155 752.007 229.247 751.589L229.038 752.043C228.129 751.624 227.223 751.201 226.318 750.776L226.531 750.323C225.628 749.898 224.726 749.469 223.826 749.038L223.61 749.488C222.707 749.055 221.806 748.618 220.906 748.178L221.126 747.729C220.227 747.289 219.33 746.845 218.435 746.399L218.212 746.846C217.315 746.399 216.421 745.948 215.529 745.494L215.755 745.049C214.864 744.595 213.975 744.139 213.088 743.679L212.858 744.123C211.969 743.662 211.083 743.199 210.198 742.732L210.432 742.289C209.548 741.823 208.667 741.353 207.788 740.88L207.551 741.321C206.67 740.847 205.79 740.369 204.913 739.889L205.153 739.45C204.275 738.969 203.4 738.485 202.526 737.998L202.282 738.435C201.408 737.947 200.535 737.456 199.664 736.961L199.911 736.526C199.041 736.033 198.174 735.536 197.309 735.035L197.058 735.468C196.192 734.967 195.327 734.463 194.465 733.956L194.719 733.525C193.857 733.019 192.998 732.509 192.141 731.996L191.884 732.425C191.026 731.911 190.17 731.394 189.316 730.874L189.576 730.447C188.722 729.927 187.869 729.403 187.019 728.876L186.755 729.301C185.904 728.774 185.054 728.243 184.207 727.709L184.474 727.286C183.628 726.753 182.784 726.217 181.942 725.678L181.672 726.099C180.83 725.559 179.989 725.015 179.151 724.469L179.424 724.05C178.586 723.505 177.751 722.956 176.918 722.404L176.642 722.821C175.808 722.268 174.977 721.713 174.147 721.154L174.426 720.74C173.597 720.181 172.77 719.619 171.945 719.054L171.662 719.467C170.836 718.901 170.012 718.332 169.19 717.76L169.475 717.35C168.655 716.779 167.836 716.204 167.02 715.627L166.731 716.035C165.914 715.457 165.099 714.876 164.286 714.292L164.578 713.886C163.766 713.303 162.957 712.716 162.15 712.127L161.855 712.531C161.047 711.941 160.241 711.348 159.438 710.751L159.736 710.35C158.933 709.754 158.133 709.156 157.335 708.554L157.034 708.953C156.234 708.35 155.437 707.744 154.642 707.136L154.946 706.739C154.152 706.131 153.361 705.52 152.572 704.906L152.265 705.3C151.474 704.686 150.687 704.068 149.902 703.447L150.212 703.055C149.427 702.435 148.645 701.813 147.866 701.187L147.553 701.577C146.773 700.95 145.995 700.321 145.219 699.689L145.535 699.301C144.76 698.67 143.988 698.035 143.219 697.398L142.9 697.783C142.128 697.145 141.36 696.503 140.593 695.859L140.915 695.476C140.15 694.833 139.387 694.186 138.627 693.537L138.302 693.917C137.541 693.267 136.782 692.615 136.026 691.959L136.353 691.581C135.598 690.926 134.845 690.268 134.095 689.608L133.765 689.983C133.014 689.322 132.265 688.658 131.519 687.991L131.852 687.618C131.107 686.952 130.364 686.283 129.624 685.611L129.288 685.981C128.547 685.308 127.808 684.633 127.072 683.954L127.411 683.587C126.676 682.909 125.944 682.229 125.214 681.546L124.872 681.911C124.141 681.227 123.413 680.54 122.687 679.851L123.032 679.488C122.307 678.8 121.585 678.108 120.865 677.414L120.518 677.774C119.798 677.079 119.08 676.382 118.365 675.681L118.715 675.324C118.001 674.625 117.289 673.923 116.58 673.218L116.228 673.572C115.518 672.867 114.811 672.158 114.107 671.447L114.462 671.095C113.758 670.385 113.058 669.672 112.36 668.957L112.002 669.306C111.303 668.589 110.606 667.87 109.913 667.149L110.273 666.802C109.581 666.082 108.891 665.358 108.204 664.632L107.841 664.976C107.152 664.249 106.467 663.519 105.785 662.787L106.15 662.446C105.469 661.715 104.79 660.981 104.113 660.245L103.745 660.583C103.068 659.845 102.394 659.105 101.723 658.363L102.093 658.028C101.423 657.286 100.756 656.543 100.091 655.796L99.7174 656.129C99.0518 655.381 98.3891 654.632 97.7291 653.879L98.105 653.549C97.4459 652.798 96.7896 652.044 96.1361 651.287L95.7577 651.614C95.1034 650.857 94.4519 650.097 93.8033 649.334L94.1841 649.01C93.5363 648.249 92.8914 647.485 92.2493 646.718L91.866 647.039C91.2231 646.272 90.5831 645.502 89.9459 644.729L90.3316 644.411C89.6959 643.64 89.063 642.867 88.4329 642.091L88.0448 642.407C87.414 641.63 86.7861 640.851 86.1611 640.069L86.5517 639.757C85.9275 638.976 85.3062 638.193 84.6878 637.408L84.2949 637.717C83.6758 636.931 83.0596 636.142 82.4463 635.351L82.8415 635.044C82.229 634.254 81.6195 633.462 81.0129 632.667L80.6154 632.97C80.008 632.174 79.4036 631.375 78.8022 630.575L79.202 630.274C78.6019 629.475 78.0047 628.674 77.4106 627.87L77.0085 628.167C76.4139 627.363 75.8222 626.556 75.2335 625.747L75.6379 625.453C75.05 624.645 74.4651 623.834 73.8832 623.022L73.4766 623.313C72.894 622.499 72.3144 621.683 71.7378 620.865L72.1466 620.577C71.5707 619.759 70.9979 618.94 70.4281 618.118L70.0172 618.403C69.4467 617.58 68.8793 616.755 68.3149 615.927L68.728 615.646C68.1647 614.82 67.6045 613.992 67.0473 613.161L66.6321 613.44C66.0749 612.609 65.5208 611.777 64.9698 610.942L65.3871 610.666C64.8367 609.832 64.2895 608.996 63.7454 608.158L63.326 608.43C62.7811 607.591 62.2394 606.75 61.7008 605.906L62.1222 605.637C61.5843 604.794 61.0495 603.949 60.5179 603.102L60.0944 603.368C59.562 602.52 59.0328 601.67 58.5068 600.817L58.9323 600.555C58.4069 599.703 57.8847 598.85 57.3657 597.994L56.9382 598.254C56.4197 597.399 55.9043 596.542 55.3921 595.683L55.8216 595.427C55.3101 594.569 54.8017 593.709 54.2966 592.847L53.8652 593.1C53.3593 592.237 52.8567 591.372 52.3573 590.504L52.7906 590.255C52.2918 589.388 51.7962 588.52 51.3039 587.65L50.8687 587.896C50.3757 587.024 49.8859 586.151 49.3994 585.275L49.8364 585.032C49.3505 584.158 48.8678 583.281 48.3884 582.403L47.9495 582.642C47.4704 581.764 46.9945 580.884 46.5219 580.002L46.9627 579.766C46.4911 578.886 46.0228 578.004 45.5577 577.12L45.1152 577.353C44.6496 576.467 44.1872 575.58 43.7281 574.691L44.1724 574.462C43.7139 573.574 43.2586 572.684 42.8067 571.792L42.3607 572.018C41.9082 571.125 41.459 570.23 41.0131 569.333L41.4608 569.11C41.0155 568.214 40.5734 567.317 40.1347 566.417L39.6853 566.636C39.2466 565.736 38.8112 564.834 38.3791 563.931L38.8301 563.715C38.3996 562.815 37.9724 561.912 37.5486 561.008L37.0958 561.221C36.6714 560.315 36.2504 559.408 35.8327 558.499L36.287 558.29C35.8698 557.382 35.456 556.473 35.0455 555.561L34.5896 555.766C34.1786 554.854 33.771 553.939 33.3668 553.023L33.8243 552.821C33.4206 551.906 33.0202 550.989 32.6233 550.07L32.1643 550.268C31.7669 549.348 31.3728 548.426 30.9822 547.502L31.4427 547.307C31.0541 546.389 30.669 545.468 30.2872 544.546L29.8252 544.737C29.443 543.813 29.0642 542.888 28.6888 541.961L29.1523 541.774C28.7774 540.848 28.4059 539.92 28.0379 538.991L27.573 539.175C27.2045 538.245 26.8395 537.313 26.4779 536.379L26.9441 536.198C26.583 535.266 26.2253 534.331 25.871 533.395L25.4034 533.572C25.0487 532.635 24.6975 531.696 24.3497 530.755L24.8187 530.582C24.4723 529.645 24.1294 528.706 23.79 527.765L23.3197 527.935C22.9806 526.996 22.645 526.055 22.3128 525.112L22.7844 524.946C22.4526 524.004 22.1244 523.061 21.7996 522.116L21.3268 522.279C21.0016 521.333 20.6799 520.385 20.3617 519.436L20.8358 519.277C20.518 518.329 20.2038 517.379 19.893 516.428L19.4178 516.583C19.1066 515.63 18.799 514.676 18.4949 513.721L18.9714 513.569C18.6679 512.615 18.368 511.66 18.0716 510.703L17.5939 510.851C17.2987 509.897 17.0069 508.942 16.7187 507.986L17.1974 507.842C16.9095 506.886 16.6252 505.93 16.3444 504.971L15.8646 505.112C15.5834 504.152 15.3058 503.191 15.0318 502.229L15.5127 502.092C15.239 501.131 14.9689 500.168 14.7023 499.203L14.2204 499.337C13.9535 498.371 13.6902 497.404 13.4305 496.436L13.9134 496.306C13.654 495.339 13.3982 494.37 13.146 493.4L12.6621 493.526C12.4106 492.558 12.1628 491.589 11.9185 490.619L12.4033 490.497C12.1599 489.53 11.9201 488.562 11.6839 487.593L11.1981 487.711C10.9615 486.74 10.7286 485.768 10.4992 484.794L10.9859 484.68C10.7569 483.707 10.5314 482.734 10.3096 481.759L9.82204 481.869C9.59993 480.893 9.38144 479.915 9.16658 478.936L9.65496 478.829C9.44038 477.851 9.22943 476.872 9.02213 475.891L8.53294 475.995C8.32557 475.014 8.12183 474.031 7.92176 473.048L8.41173 472.948C8.21322 471.972 8.01832 470.995 7.82704 470.016L7.33633 470.112C7.1448 469.133 6.9569 468.151 6.77265 467.169L7.26408 467.077C7.08006 466.096 6.89968 465.113 6.72295 464.13L6.23082 464.218C6.05387 463.233 5.88057 462.247 5.71094 461.259L6.20372 461.175C6.0343 460.189 5.86855 459.201 5.70648 458.212L5.21307 458.293C5.05079 457.303 4.89221 456.312 4.73732 455.32L5.23133 455.243C5.07737 454.256 4.92706 453.268 4.78043 452.279L4.28584 452.353C4.13957 451.366 3.99696 450.379 3.85801 449.39L4.35315 449.32C4.21437 448.333 4.07926 447.344 3.94783 446.354L3.45218 446.42C3.32057 445.428 3.19265 444.436 3.06842 443.443L3.56456 443.38C3.44049 442.388 3.32011 441.395 3.20343 440.4L2.70684 440.459C2.59001 439.463 2.4769 438.466 2.36751 437.468L2.86453 437.413C2.75528 436.417 2.64974 435.419 2.54794 434.42L2.05051 434.47C1.94949 433.479 1.85213 432.486 1.75846 431.493L2.25625 431.446C2.16276 430.454 2.07294 429.461 1.98681 428.468L1.48867 428.511C1.40243 427.516 1.31989 426.52 1.24105 425.522L1.7395 425.483C1.66076 424.487 1.58572 423.49 1.5144 422.492L1.01568 422.528C0.944268 421.528 0.876582 420.528 0.812632 419.527L1.31162 419.495C1.24775 418.495 1.18761 417.494 1.13121 416.492L0.632001 416.52C0.575688 415.519 0.523104 414.518 0.474263 413.515L0.973671 413.491C0.925278 412.497 0.880563 411.503 0.839542 410.508L0.339965 410.528C0.298892 409.532 0.261517 408.534 0.227851 407.536L0.727567 407.519C0.693944 406.521 0.664026 405.523 0.637828 404.524L0.138 404.537C0.111769 403.537 0.0892614 402.536 0.0704916 401.533L0.570404 401.524C0.551657 400.523 0.536643 399.521 0.525375 398.518L0.025407 398.524C0.0141251 397.52 0.00659374 396.515 0.00282638 395.509L0.502823 395.508C0.500942 395.005 0.5 394.503 0.5 394C0.5 393.498 0.50094 392.996 0.502819 392.494L0.00282204 392.492C0.00658654 391.486 0.0141151 390.481 0.0253943 389.477L0.525363 389.483C0.536628 388.48 0.551639 387.478 0.570382 386.477L0.0704702 386.468C0.0892373 385.466 0.111742 384.464 0.13797 383.464L0.637798 383.477C0.663994 382.478 0.693909 381.48 0.72753 380.482L0.227814 380.466C0.261477 379.467 0.29885 378.47 0.33992 377.473L0.839496 377.494C0.880515 376.498 0.925227 375.504 0.973617 374.51L0.474209 374.486C0.523048 373.483 0.575629 372.482 0.631939 371.481L1.13115 371.509C1.18754 370.507 1.24768 369.506 1.31155 368.506L0.812563 368.474C0.876511 367.473 0.944194 366.473 1.0156 365.473L1.51433 365.509C1.58564 364.511 1.66068 363.514 1.73941 362.518L1.24097 362.479C1.3198 361.481 1.40235 360.485 1.48858 359.49L1.98672 359.533C2.07285 358.54 2.16266 357.547 2.25616 356.555L1.75837 356.508C1.85203 355.515 1.94938 354.522 2.05041 353.531L2.54783 353.581C2.64963 352.582 2.75517 351.585 2.86442 350.588L2.36739 350.533C2.47678 349.535 2.5899 348.538 2.70672 347.542L3.20332 347.601C3.31999 346.606 3.44037 345.613 3.56444 344.621L3.0683 344.558C3.19252 343.565 3.32044 342.573 3.45204 341.581L3.94769 341.647C4.07913 340.657 4.21424 339.668 4.35301 338.681L3.85787 338.611C3.99682 337.622 4.13943 336.635 4.2857 335.648L4.78029 335.722C4.92692 334.733 5.07722 333.745 5.23118 332.758L4.73716 332.681C4.89205 331.689 5.05064 330.698 5.21291 329.708L5.70633 329.789C5.86839 328.8 6.03414 327.812 6.20356 326.826L5.71077 326.741C5.8804 325.754 6.0537 324.768 6.23066 323.783L6.72278 323.871C6.89951 322.888 7.07989 321.905 7.26391 320.924L6.77248 320.832C6.95673 319.849 7.14463 318.868 7.33615 317.889L7.82686 317.984C8.01814 317.006 8.21305 316.029 8.41156 315.053L7.92159 314.953C8.12166 313.969 8.32539 312.987 8.53277 312.006L9.02195 312.11C9.22925 311.129 9.4402 310.15 9.65478 309.172L9.1664 309.065C9.38125 308.086 9.59974 307.108 9.82186 306.131L10.3094 306.242C10.5312 305.267 10.7567 304.293 10.9857 303.321L10.499 303.206C10.7284 302.233 10.9613 301.261 11.1979 300.29L11.6837 300.408C11.9199 299.439 12.1597 298.47 12.4031 297.504L11.9183 297.382C12.1626 296.411 12.4104 295.442 12.6619 294.475L13.1458 294.601C13.398 293.631 13.6538 292.662 13.9132 291.695L13.4303 291.565C13.69 290.597 13.9533 289.63 14.2202 288.664L14.7021 288.797C14.9687 287.833 15.2388 286.87 15.5125 285.909L15.0316 285.772C15.3056 284.809 15.5832 283.848 15.8644 282.889L16.3442 283.029C16.625 282.071 16.9093 281.114 17.1972 280.159L16.7185 280.015C17.0067 279.058 17.2985 278.103 17.5937 277.15L18.0714 277.298C18.3678 276.341 18.6677 275.385 18.9712 274.432L18.4947 274.28C18.7988 273.324 19.1064 272.37 19.4175 271.418L19.8928 271.573C20.2036 270.622 20.5178 269.672 20.8356 268.724L20.3615 268.565C20.6797 267.616 21.0014 266.668 21.3266 265.722L21.7994 265.884C22.1242 264.94 22.4524 263.996 22.7842 263.055L22.3126 262.889C22.6448 261.946 22.9804 261.005 23.3195 260.065L23.7898 260.235C24.1292 259.295 24.4721 258.356 24.8185 257.419L24.3495 257.246C24.6973 256.305 25.0485 255.366 25.4032 254.429L25.8708 254.606C26.2251 253.669 26.5828 252.735 26.9439 251.802L26.4777 251.622C26.8393 250.688 27.2043 249.756 27.5728 248.825L28.0377 249.009C28.4057 248.08 28.7772 247.153 29.1521 246.227L28.6887 246.039C29.064 245.112 29.4428 244.187 29.825 243.264L30.287 243.455C30.6688 242.532 31.054 241.612 31.4425 240.693L30.982 240.498C31.3726 239.575 31.7667 238.653 32.1641 237.733L32.6231 237.931C33.02 237.012 33.4204 236.095 33.8241 235.18L33.3666 234.978C33.7708 234.061 34.1785 233.147 34.5894 232.234L35.0454 232.439C35.4558 231.528 35.8696 230.618 36.2868 229.71L35.8325 229.501C36.2502 228.592 36.6713 227.685 37.0957 226.78L37.5484 226.992C37.9723 226.088 38.3995 225.186 38.83 224.285L38.3789 224.07C38.811 223.166 39.2464 222.264 39.6852 221.364L40.1346 221.583C40.5733 220.684 41.0153 219.786 41.4607 218.89L41.0129 218.668C41.4588 217.771 41.908 216.876 42.3605 215.983L42.8066 216.208C43.2585 215.317 43.7137 214.427 44.1722 213.539L43.728 213.309C44.1871 212.42 44.6494 211.533 45.1151 210.648L45.5576 210.88C46.0227 209.996 46.491 209.114 46.9625 208.234L46.5218 207.998C46.9944 207.116 47.4703 206.236 47.9494 205.358L48.3883 205.598C48.8677 204.719 49.3504 203.842 49.8363 202.968L49.3993 202.725C49.8858 201.849 50.3756 200.976 50.8686 200.104L51.3038 200.351C51.7961 199.48 52.2917 198.612 52.7905 197.745L52.3572 197.496C52.8566 196.629 53.3593 195.763 53.8651 194.9L54.2965 195.153C54.8016 194.291 55.31 193.431 55.8215 192.573L55.3921 192.317C55.9043 191.458 56.4196 190.601 56.9381 189.746L57.3656 190.006C57.8846 189.15 58.4068 188.297 58.9322 187.445L58.5067 187.183C59.0328 186.33 59.562 185.48 60.0943 184.632L60.5178 184.898C61.0495 184.051 61.5843 183.206 62.1222 182.363L61.7008 182.094C62.2394 181.251 62.7811 180.409 63.3259 179.57L63.7453 179.842C64.2895 179.004 64.8367 178.168 65.387 177.334L64.9697 177.058C65.5208 176.223 66.0749 175.391 66.6321 174.56L67.0473 174.839C67.6044 174.008 68.1647 173.18 68.728 172.354L68.3149 172.073C68.8793 171.245 69.4467 170.42 70.0172 169.597L70.4281 169.882C70.9979 169.06 71.5707 168.241 72.1466 167.423L71.7378 167.135C72.3144 166.317 72.894 165.501 73.4766 164.687L73.8832 164.978C74.4651 164.166 75.05 163.355 75.6379 162.547L75.2336 162.253C75.8222 161.444 76.4139 160.637 77.0085 159.833L77.4106 160.13C78.0048 159.326 78.6019 158.525 79.202 157.726L78.8022 157.425C79.4037 156.625 80.0081 155.826 80.6154 155.03L81.0129 155.333C81.6195 154.538 82.2291 153.746 82.8416 152.956L82.4464 152.649C83.0596 151.858 83.6759 151.069 84.295 150.283L84.6879 150.592C85.3062 149.807 85.9275 149.024 86.5517 148.243L86.1612 147.931C86.7862 147.149 87.4141 146.37 88.0449 145.593L88.433 145.909C89.063 145.133 89.6959 144.36 90.3317 143.589L89.946 143.271C90.5831 142.498 91.2232 141.728 91.8661 140.961L92.2494 141.282C92.8914 140.515 93.5364 139.751 94.1842 138.99L93.8033 138.666C94.4519 137.903 95.1034 137.143 95.7577 136.386L96.1361 136.713C96.7896 135.956 97.4459 135.202 98.105 134.451L97.7291 134.121C98.3891 133.368 99.0519 132.619 99.7174 131.871L100.091 132.204C100.756 131.457 101.423 130.714 102.093 129.972L101.723 129.637C102.394 128.894 103.068 128.155 103.745 127.417L104.113 127.755C104.79 127.019 105.469 126.285 106.15 125.554L105.785 125.213C106.467 124.481 107.152 123.751 107.841 123.024L108.204 123.368C108.891 122.642 109.581 121.918 110.273 121.198L109.913 120.851C110.606 120.13 111.303 119.41 112.002 118.694L112.36 119.043C113.058 118.328 113.758 117.615 114.462 116.905L114.107 116.553C114.811 115.842 115.518 115.133 116.228 114.428L116.58 114.782C117.289 114.077 118.001 113.375 118.715 112.676L118.365 112.319C119.08 111.618 119.798 110.921 120.518 110.226L120.865 110.586C121.585 109.892 122.307 109.2 123.032 108.512L122.687 108.149C123.413 107.46 124.141 106.773 124.872 106.089L125.214 106.454C125.944 105.771 126.676 105.091 127.411 104.413L127.072 104.046C127.809 103.367 128.547 102.692 129.288 102.019L129.624 102.389C130.364 101.717 131.107 101.048 131.852 100.382L131.519 100.009C132.265 99.3424 133.014 98.6782 133.765 98.0168L134.095 98.3921C134.845 97.7316 135.598 97.0738 136.353 96.4189L136.026 96.0412C136.782 95.3854 137.541 94.7326 138.302 94.0825L138.627 94.4628C139.387 93.8136 140.15 93.1672 140.915 92.5237L140.593 92.141C141.36 91.4967 142.128 90.8553 142.9 90.2167L143.219 90.6019C143.988 89.9646 144.76 89.3302 145.535 88.6986L145.219 88.3111C145.995 87.6788 146.773 87.0495 147.553 86.4231L147.866 86.813C148.645 86.1873 149.427 85.5646 150.212 84.9448L149.902 84.5525C150.687 83.9319 151.475 83.3143 152.265 82.6996L152.572 83.0942C153.361 82.4803 154.152 81.8693 154.946 81.2613L154.642 80.8643C155.437 80.2555 156.234 79.6497 157.034 79.0469L157.335 79.4461C158.133 78.8445 158.933 78.2458 159.736 77.6501L159.438 77.2486C160.241 76.6525 161.047 76.0593 161.855 75.4692L162.15 75.873C162.957 75.2836 163.766 74.6973 164.578 74.1139L164.286 73.7079C165.099 73.1238 165.914 72.5427 166.731 71.9647L167.02 72.3729C167.836 71.7956 168.655 71.2214 169.475 70.6502L169.19 70.2398C170.012 69.6679 170.836 69.099 171.662 68.5332L171.945 68.9458C172.77 68.3809 173.597 67.8192 174.426 67.2605L174.147 66.8458C174.977 66.2871 175.808 65.7316 176.642 65.1791L176.918 65.5959C177.751 65.0441 178.586 64.4954 179.424 63.9498L179.151 63.5309C179.989 62.9846 180.83 62.4414 181.672 61.9014L181.942 62.3224C182.784 61.783 183.628 61.2468 184.474 60.7137L184.207 60.2906C185.054 59.7569 185.904 59.2262 186.755 58.6988L187.018 59.1238C187.869 58.597 188.721 58.0734 189.576 57.5529L189.316 57.1258C190.17 56.6058 191.026 56.089 191.884 55.5753L192.141 56.0043C192.998 55.4913 193.857 54.9815 194.718 54.4749L194.465 54.044C195.327 53.5367 196.192 53.0327 197.058 52.5319L197.308 52.9647C198.174 52.4645 199.041 51.9676 199.911 51.4738L199.664 51.039C200.535 50.5446 201.407 50.0534 202.282 49.5655L202.526 50.0022C203.399 49.5149 204.275 49.0308 205.153 48.55L204.913 48.1115C205.79 47.6309 206.669 47.1535 207.551 46.6795L207.788 47.1198C208.667 46.6468 209.548 46.1771 210.432 45.7107L210.198 45.2686C211.083 44.8015 211.969 44.3378 212.857 43.8773L213.087 44.3212C213.975 43.8614 214.864 43.4048 215.755 42.9515L215.529 42.5058C216.421 42.0519 217.315 41.6014 218.211 41.1541L218.435 41.6015C219.33 41.1549 220.227 40.7115 221.126 40.2715L220.906 39.8224C221.805 39.3822 222.707 38.9454 223.61 38.5119L223.826 38.9626C224.726 38.5308 225.627 38.1022 226.531 37.6771L226.318 37.2247C227.223 36.7989 228.129 36.3765 229.038 35.9575L229.247 36.4116C230.154 35.9931 231.063 35.578 231.974 35.1662L231.768 34.7106C232.68 34.2983 233.594 33.8894 234.51 33.4839L234.713 33.9411C235.627 33.5361 236.544 33.1345 237.462 32.7364L237.263 32.2776C238.183 31.8789 239.104 31.4837 240.027 31.0918L240.222 31.5521C241.141 31.1621 242.061 30.7756 242.983 30.3925L242.792 29.9308C243.714 29.5473 244.639 29.1673 245.565 28.7907L245.754 29.2539C246.679 28.8778 247.606 28.5051 248.535 28.1359L248.35 27.6713C249.28 27.3016 250.212 26.9353 251.145 26.5725L251.326 27.0385C252.258 26.6762 253.192 26.3173 254.128 25.9619L253.95 25.4945C254.887 25.1387 255.826 24.7863 256.766 24.4374L256.94 24.9062C257.876 24.5585 258.815 24.2144 259.755 23.8738L259.585 23.4037C260.524 23.0634 261.464 22.7266 262.407 22.3933L262.574 22.8647C263.515 22.5319 264.457 22.2025 265.402 21.8766L265.239 21.404C266.184 21.0777 267.132 20.7549 268.081 20.4357L268.24 20.9096C269.188 20.5907 270.137 20.2754 271.088 19.9636L270.932 19.4885C271.884 19.1763 272.838 18.8676 273.793 18.5625L273.945 19.0388C274.899 18.7342 275.854 18.4332 276.811 18.1357L276.663 17.6582C277.616 17.3619 278.57 17.0691 279.526 16.7799L279.671 17.2585C280.626 16.9696 281.583 16.6843 282.541 16.4025L282.399 15.9229C283.359 15.6407 284.319 15.3621 285.282 15.0872L285.419 15.5679C286.38 15.2933 287.343 15.0222 288.307 14.7547L288.173 14.2729C289.138 14.0051 290.105 13.7408 291.073 13.4802L291.203 13.963C292.17 13.7027 293.138 13.446 294.108 13.1929L293.982 12.7091C294.949 12.4567 295.918 12.2079 296.888 11.9626L297.011 12.4474C297.977 12.2031 298.945 11.9624 299.915 11.7254L299.796 11.2397C300.766 11.0023 301.738 10.7685 302.712 10.5383L302.827 11.0249C303.799 10.795 304.773 10.5688 305.747 10.3462L305.636 9.85871C306.612 9.6358 307.59 9.41652 308.569 9.20089L308.676 9.68918C309.654 9.47383 310.633 9.26212 311.613 9.05407L311.509 8.56496C312.49 8.35678 313.473 8.15226 314.456 7.95142L314.556 8.44131C315.532 8.24208 316.509 8.04646 317.488 7.85448L317.391 7.36384C318.371 7.17161 319.352 6.98303 320.334 6.7981L320.427 7.28946C321.408 7.10477 322.39 6.92372 323.374 6.74634L323.285 6.25428C324.27 6.07667 325.256 5.90273 326.243 5.73248L326.328 6.22521C327.314 6.05517 328.301 5.88881 329.29 5.72615L329.209 5.23278C330.199 5.06991 331.19 4.91073 332.182 4.75527L332.259 5.24924C333.246 5.09468 334.234 4.94378 335.223 4.79658L335.149 4.30203C336.136 4.15521 337.123 4.01207 338.112 3.8726L338.182 4.3677C339.169 4.22841 340.158 4.09279 341.148 3.96087L341.082 3.46525C342.073 3.33316 343.065 3.20476 344.059 3.08007L344.121 3.57617C345.113 3.45164 346.106 3.33081 347.101 3.2137L347.042 2.71713C348.038 2.59987 349.035 2.48633 350.033 2.37652L350.087 2.87352C351.084 2.76386 352.082 2.65793 353.081 2.55574L353.03 2.05834C354.021 1.95692 355.014 1.85918 356.008 1.76514L356.055 2.26292C357.046 2.16907 358.039 2.07891 359.033 1.99245L358.99 1.49433C359.985 1.40777 360.981 1.32491 361.978 1.24577L362.017 1.74421C363.013 1.66517 364.01 1.58985 365.008 1.51827L364.972 1.01955C365.972 0.947869 366.972 0.879927 367.973 0.815734L368.005 1.31471C369.005 1.2506 370.006 1.19023 371.008 1.13362L370.98 0.634418C371.981 0.577886 372.982 0.525098 373.985 0.476068L374.01 0.975471C375.003 0.926894 375.997 0.88201 376.993 0.840832L376.972 0.34126C377.969 0.30003 378.966 0.262512 379.965 0.228719L379.981 0.728432C380.979 0.694681 381.977 0.66465 382.976 0.638352L382.963 0.138525C383.963 0.112195 384.964 0.0896016 385.967 0.0707602L385.976 0.570672C386.977 0.551854 387.979 0.536783 388.982 0.525472L388.976 0.025504C389.98 0.0141789 390.985 0.00661884 391.991 0.00283712L391.993 0.502834C392.495 0.500945 392.997 0.5 393.5 0.5C394.002 0.5 394.504 0.500944 395.006 0.502829L395.008 0.00283247C396.014 0.00661111 397.019 0.0141682 398.023 0.0254902L398.017 0.525458C399.02 0.536766 400.022 0.551834 401.023 0.570649L401.032 0.0707379C402.034 0.0895763 403.036 0.112166 404.036 0.138494L404.023 0.638321C405.022 0.664616 406.02 0.694645 407.017 0.728393L407.034 0.22868C408.033 0.26247 409.03 0.299986 410.027 0.341212L410.006 0.840785C411.002 0.88196 411.996 0.926842 412.989 0.975416L413.014 0.476013C414.016 0.525041 415.018 0.577827 416.019 0.634356L415.991 1.13356C416.993 1.19017 417.994 1.25053 418.994 1.31464L419.026 0.815664C420.027 0.879854 421.027 0.947794 422.026 1.01947L421.991 1.51819C422.989 1.58977 423.986 1.66509 424.981 1.74412L425.021 1.24569C426.018 1.32482 427.014 1.40768 428.009 1.49424L427.966 1.99236C428.96 2.07882 429.952 2.16897 430.944 2.26282L430.991 1.76504C431.985 1.85908 432.977 1.95681 433.969 2.05823L433.918 2.55564C434.917 2.65782 435.915 2.76375 436.912 2.87341L436.966 2.37641C437.964 2.48621 438.961 2.59975 439.957 2.71701L439.898 3.21358C440.893 3.33069 441.886 3.45152 442.878 3.57605L442.941 3.07994C443.934 3.20463 444.926 3.33303 445.917 3.46512L445.851 3.96074C446.841 4.09267 447.83 4.22828 448.817 4.36757L448.887 3.87247C449.876 4.01193 450.864 4.15508 451.85 4.30189L451.776 4.79644C452.765 4.94364 453.753 5.09454 454.74 5.24911L454.817 4.75513C455.809 4.91059 456.801 5.06976 457.79 5.23263L457.709 5.726C458.698 5.88867 459.685 6.05502 460.671 6.22506L460.756 5.73234C461.743 5.90259 462.73 6.07653 463.714 6.25413L463.626 6.74619C464.609 6.92357 465.591 7.10462 466.572 7.28931L466.665 6.79794C467.647 6.98287 468.628 7.17146 469.608 7.36368L469.512 7.85433C470.49 8.0463 471.467 8.24192 472.443 8.44115L472.543 7.95126C473.526 8.1521 474.509 8.35662 475.49 8.5648L475.386 9.05391C476.366 9.26196 477.345 9.47366 478.323 9.68902L478.431 9.20072C479.409 9.41635 480.387 9.63562 481.363 9.85854L481.252 10.346C482.227 10.5686 483.2 10.7949 484.172 11.0247L484.287 10.5382C485.261 10.7683 486.233 11.0021 487.203 11.2395L487.085 11.7252C488.054 11.9623 489.022 12.203 489.988 12.4472L490.111 11.9625C491.081 12.2077 492.05 12.4565 493.017 12.709L492.891 13.1928C493.861 13.4458 494.829 13.7025 495.796 13.9628L495.926 13.48C496.895 13.7407 497.861 14.0049 498.827 14.2727L498.693 14.7545C499.657 15.022 500.619 15.2931 501.58 15.5677L501.718 15.087C502.68 15.362 503.641 15.6405 504.6 15.9227L504.459 16.4024C505.417 16.6841 506.373 16.9695 507.328 17.2583L507.473 16.7797C508.429 17.069 509.384 17.3618 510.337 17.6581L510.188 18.1355C511.145 18.433 512.101 18.7341 513.054 19.0387L513.206 18.5624C514.162 18.8675 515.115 19.1761 516.068 19.4883L515.912 19.9634C516.863 20.2752 517.812 20.5906 518.76 20.9094L518.919 20.4355C519.868 20.7548 520.815 21.0775 521.761 21.4038L521.598 21.8765C522.542 22.2023 523.485 22.5317 524.426 22.8646L524.593 22.3932C525.535 22.7265 526.476 23.0632 527.415 23.4035L527.244 23.8736C528.185 24.2142 529.123 24.5584 530.06 24.906L530.234 24.4372C531.174 24.7861 532.113 25.1385 533.049 25.4943L532.872 25.9618C533.807 26.3172 534.741 26.676 535.674 27.0384L535.855 26.5723C536.788 26.9351 537.72 27.3014 538.65 27.6711L538.465 28.1357C539.394 28.505 540.321 28.8777 541.246 29.2538L541.434 28.7906C542.361 29.1672 543.285 29.5472 544.208 29.9306L544.016 30.3923C544.938 30.7755 545.859 31.162 546.777 31.5519L546.973 31.0917C547.896 31.4835 548.817 31.8788 549.737 32.2775L549.538 32.7362C550.456 33.1344 551.372 33.536 552.287 33.941L552.489 33.4838C553.405 33.8893 554.319 34.2982 555.231 34.7104L555.025 35.1661C555.936 35.5778 556.845 35.9929 557.753 36.4114L557.962 35.9574C558.871 36.3764 559.777 36.7988 560.682 37.2245L560.469 37.6769C561.372 38.1021 562.274 38.5307 563.174 38.9625L563.39 38.5117C564.293 38.9452 565.194 39.3821 566.094 39.8223L565.874 40.2714C566.773 40.7114 567.67 41.1547 568.565 41.6014L568.788 41.154C569.685 41.6013 570.579 42.0518 571.471 42.5057L571.245 42.9514C572.136 43.4046 573.025 43.8612 573.912 44.3211L574.142 43.8772C575.031 44.3377 575.917 44.8014 576.802 45.2685L576.568 45.7106C577.452 46.177 578.333 46.6467 579.212 47.1197L579.449 46.6794C580.33 47.1535 581.21 47.6308 582.087 48.1114L581.847 48.5499C582.725 49.0307 583.6 49.5148 584.474 50.0021L584.718 49.5654C585.593 50.0533 586.465 50.5445 587.336 51.0389L587.089 51.4737C587.959 51.9675 588.826 52.4645 589.691 52.9647L589.942 52.5318C590.808 53.0326 591.673 53.5367 592.535 54.0439L592.281 54.4749C593.143 54.9815 594.002 55.4913 594.859 56.0042L595.116 55.5752C595.974 56.0889 596.83 56.6058 597.684 57.1258L597.424 57.5528C598.279 58.0733 599.131 58.597 599.981 59.1238L600.245 58.6987C601.096 59.2262 601.946 59.7568 602.793 60.2906L602.526 60.7136C603.372 61.2467 604.216 61.783 605.058 62.3223L605.328 61.9014C606.17 62.4414 607.011 62.9846 607.849 63.5309L607.576 63.9498C608.414 64.4954 609.249 65.0441 610.082 65.5959L610.358 65.179C611.192 65.7315 612.023 66.2871 612.853 66.8458L612.574 67.2605C613.403 67.8192 614.23 68.3809 615.055 68.9458L615.338 68.5332C616.164 69.099 616.988 69.6679 617.81 70.2398L617.525 70.6502C618.345 71.2214 619.164 71.7957 619.98 72.373L620.269 71.9648C621.086 72.5428 621.901 73.1238 622.714 73.7079L622.422 74.1139C623.234 74.6973 624.043 75.2837 624.85 75.873L625.145 75.4693C625.953 76.0594 626.759 76.6525 627.562 77.2486L627.264 77.6502C628.067 78.2458 628.867 78.8445 629.665 79.4462L629.966 79.0469C630.766 79.6497 631.563 80.2556 632.358 80.8644L632.054 81.2613C632.848 81.8693 633.639 82.4803 634.428 83.0943L634.735 82.6996C635.526 83.3143 636.313 83.932 637.099 84.5526L636.788 84.9449C637.573 85.5647 638.355 86.1874 639.134 86.813L639.447 86.4231C640.227 87.0496 641.005 87.6789 641.781 88.3111L641.465 88.6987C642.24 89.3302 643.012 89.9646 643.781 90.6019L644.1 90.2168C644.872 90.8553 645.64 91.4968 646.407 92.1411L646.085 92.5238C646.85 93.1673 647.613 93.8136 648.373 94.4628L648.698 94.0826C649.459 94.7326 650.218 95.3855 650.974 96.0412L650.647 96.419C651.402 97.0739 652.155 97.7316 652.905 98.3922L653.235 98.0169C653.986 98.6783 654.735 99.3425 655.481 100.009L655.148 100.382C655.893 101.048 656.636 101.717 657.376 102.389L657.712 102.019C658.453 102.692 659.192 103.367 659.928 104.046L659.589 104.413C660.324 105.091 661.056 105.771 661.786 106.454L662.128 106.089C662.859 106.773 663.587 107.46 664.313 108.149L663.968 108.512C664.693 109.2 665.415 109.892 666.135 110.586L666.482 110.226C667.202 110.921 667.92 111.618 668.635 112.319L668.285 112.676C668.999 113.375 669.711 114.078 670.42 114.782L670.772 114.428C671.482 115.133 672.189 115.842 672.893 116.553L672.538 116.905C673.242 117.615 673.942 118.328 674.64 119.043L674.998 118.694C675.697 119.411 676.394 120.13 677.087 120.851L676.727 121.198C677.419 121.919 678.109 122.642 678.796 123.368L679.159 123.024C679.848 123.751 680.533 124.481 681.215 125.213L680.85 125.554C681.531 126.285 682.21 127.019 682.887 127.756L683.255 127.417C683.932 128.155 684.606 128.895 685.277 129.637L684.907 129.972C685.577 130.714 686.245 131.457 686.909 132.204L687.283 131.871C687.948 132.619 688.611 133.368 689.271 134.121L688.895 134.451C689.554 135.202 690.21 135.956 690.864 136.713L691.242 136.386C691.897 137.143 692.548 137.903 693.197 138.666L692.816 138.99C693.464 139.751 694.109 140.515 694.751 141.282L695.134 140.961C695.777 141.728 696.417 142.498 697.054 143.271L696.668 143.589C697.304 144.36 697.937 145.133 698.567 145.909L698.955 145.593C699.586 146.37 700.214 147.149 700.839 147.931L700.448 148.243C701.073 149.024 701.694 149.807 702.312 150.592L702.705 150.283C703.324 151.069 703.94 151.858 704.554 152.649L704.158 152.956C704.771 153.746 705.38 154.538 705.987 155.334L706.385 155.03C706.992 155.826 707.596 156.625 708.198 157.425L707.798 157.726C708.398 158.525 708.995 159.326 709.589 160.13L709.992 159.833C710.586 160.637 711.178 161.444 711.766 162.253L711.362 162.547C711.95 163.355 712.535 164.166 713.117 164.978L713.523 164.687C714.106 165.501 714.686 166.317 715.262 167.135L714.853 167.423C715.429 168.241 716.002 169.06 716.572 169.882L716.983 169.597C717.553 170.42 718.121 171.245 718.685 172.073L718.272 172.354C718.835 173.18 719.396 174.008 719.953 174.839L720.368 174.56C720.925 175.391 721.479 176.223 722.03 177.058L721.613 177.334C722.163 178.168 722.711 179.004 723.255 179.842L723.674 179.57C724.219 180.409 724.761 181.25 725.299 182.094L724.878 182.363C725.416 183.206 725.95 184.051 726.482 184.898L726.906 184.632C727.438 185.48 727.967 186.33 728.493 187.183L728.068 187.445C728.593 188.297 729.115 189.15 729.634 190.006L730.062 189.746C730.58 190.601 731.096 191.458 731.608 192.317L731.178 192.573C731.69 193.431 732.198 194.291 732.703 195.153L733.135 194.9C733.641 195.763 734.143 196.628 734.643 197.496L734.209 197.745C734.708 198.612 735.204 199.48 735.696 200.35L736.131 200.104C736.624 200.976 737.114 201.849 737.601 202.725L737.164 202.968C737.649 203.842 738.132 204.719 738.612 205.597L739.051 205.358C739.53 206.236 740.005 207.116 740.478 207.998L740.037 208.234C740.509 209.114 740.977 209.996 741.442 210.88L741.885 210.647C742.35 211.533 742.813 212.42 743.272 213.309L742.828 213.538C743.286 214.426 743.741 215.316 744.193 216.208L744.639 215.982C745.092 216.875 745.541 217.77 745.987 218.667L745.539 218.89C745.985 219.786 746.427 220.683 746.865 221.583L747.315 221.364C747.753 222.264 748.189 223.166 748.621 224.069L748.17 224.285C748.6 225.185 749.028 226.088 749.451 226.992L749.904 226.779C750.329 227.685 750.75 228.592 751.167 229.501L750.713 229.71C751.13 230.618 751.544 231.527 751.954 232.439L752.41 232.234C752.821 233.146 753.229 234.061 753.633 234.977L753.176 235.179C753.579 236.094 753.98 237.011 754.377 237.93L754.836 237.732C755.233 238.652 755.627 239.574 756.018 240.498L755.557 240.693C755.946 241.611 756.331 242.532 756.713 243.454L757.175 243.263C757.557 244.187 757.936 245.112 758.311 246.039L757.848 246.226C758.223 247.152 758.594 248.08 758.962 249.009L759.427 248.825C759.795 249.755 760.161 250.687 760.522 251.621L760.056 251.802C760.417 252.734 760.775 253.669 761.129 254.605L761.597 254.428C761.951 255.365 762.303 256.304 762.65 257.245L762.181 257.418C762.528 258.355 762.871 259.294 763.21 260.235L763.68 260.065C764.019 261.004 764.355 261.945 764.687 262.888L764.216 263.054C764.547 263.996 764.876 264.939 765.2 265.884L765.673 265.721C765.998 266.667 766.32 267.615 766.638 268.564L766.164 268.723C766.482 269.671 766.796 270.621 767.107 271.572L767.582 271.417C767.893 272.37 768.201 273.324 768.505 274.279L768.029 274.431C768.332 275.385 768.632 276.34 768.928 277.297L769.406 277.149C769.701 278.103 769.993 279.058 770.281 280.014L769.803 280.158C770.09 281.114 770.375 282.07 770.656 283.029L771.135 282.888C771.417 283.848 771.694 284.809 771.968 285.771L771.487 285.908C771.761 286.869 772.031 287.832 772.298 288.797L772.78 288.663C773.047 289.629 773.31 290.596 773.57 291.564L773.087 291.694C773.346 292.661 773.602 293.63 773.854 294.6L774.338 294.474C774.589 295.442 774.837 296.411 775.082 297.381L774.597 297.503C774.84 298.47 775.08 299.438 775.316 300.407L775.802 300.289C776.038 301.26 776.271 302.232 776.501 303.206L776.014 303.32C776.243 304.293 776.469 305.266 776.69 306.241L777.178 306.131C777.4 307.107 777.619 308.085 777.833 309.064L777.345 309.171C777.56 310.149 777.771 311.128 777.978 312.109L778.467 312.005C778.674 312.986 778.878 313.969 779.078 314.952L778.588 315.052C778.787 316.028 778.982 317.005 779.173 317.984L779.664 317.888C779.855 318.867 780.043 319.849 780.227 320.831L779.736 320.923C779.92 321.904 780.1 322.887 780.277 323.87L780.769 323.782C780.946 324.767 781.119 325.753 781.289 326.741L780.796 326.825C780.966 327.811 781.131 328.799 781.294 329.788L781.787 329.707C781.949 330.697 782.108 331.688 782.263 332.68L781.769 332.757C781.923 333.744 782.073 334.732 782.22 335.721L782.714 335.647C782.86 336.634 783.003 337.621 783.142 338.61L782.647 338.68C782.786 339.668 782.921 340.656 783.052 341.646L783.548 341.58C783.679 342.572 783.807 343.564 783.932 344.557L783.435 344.62C783.56 345.612 783.68 346.605 783.797 347.6L784.293 347.541C784.41 348.537 784.523 349.534 784.633 350.532L784.135 350.587C784.245 351.583 784.35 352.581 784.452 353.58L784.949 353.53C785.05 354.521 785.148 355.514 785.242 356.507L784.744 356.554C784.798 357.126 784.85 357.698 784.902 358.271C784.94 358.691 784.977 359.112 785.013 359.532L785.511 359.489C785.598 360.484 785.68 361.48 785.759 362.478L785.26 362.517C785.339 363.513 785.414 364.51 785.486 365.508L785.984 365.472C786.056 366.472 786.123 367.472 786.187 368.473L785.688 368.505C785.752 369.505 785.812 370.506 785.869 371.508L786.368 371.48C786.424 372.481 786.477 373.482 786.526 374.485L786.026 374.509C786.075 375.503 786.119 376.497 786.16 377.492L786.66 377.472C786.701 378.468 786.738 379.466 786.772 380.464L786.272 380.481C786.298 381.235 786.321 381.989 786.342 382.743C786.349 382.987 786.356 383.232 786.362 383.476L786.862 383.463C786.888 384.463 786.911 385.464 786.93 386.467L786.43 386.476C786.448 387.477 786.463 388.479 786.475 389.482L786.975 389.476Z" stroke="#ACC2BA" stroke-dasharray="3 3"/>
<circle cx="24.5" cy="530.5" r="7.5" fill="#D4DEDB"/>
<circle cx="31.5" cy="241.5" r="7.5" fill="#D4DEDB"/>
<circle cx="201.5" cy="48.5" r="7.5" fill="#D4DEDB"/>
<circle cx="659.5" cy="682.5" r="7.5" fill="#D4DEDB"/>
<circle cx="786.5" cy="362.5" r="7.5" fill="#D4DEDB"/>
<circle cx="558.5" cy="38.5" r="7.5" fill="#D4DEDB"/>
<circle cx="393.5" cy="787.5" r="7.5" fill="#D4DEDB"/>
</svg>
