<svg width="234" height="233" viewBox="0 0 234 233" fill="none" xmlns="http://www.w3.org/2000/svg">
<path d="M43.3112 220.994C43.2234 221.047 43.1357 221.094 43.0479 221.133C42.965 221.167 42.8773 221.191 42.7847 221.206C42.9748 221.235 43.1503 221.303 43.3112 221.41L44.4739 222.09L44.0497 222.821L42.8871 222.141C42.7993 222.088 42.7164 222.032 42.6384 221.973C42.5653 221.915 42.5019 221.851 42.4483 221.783C42.5117 221.944 42.5434 222.129 42.5434 222.339V223.684H41.6805V222.346C41.6805 222.249 41.6853 222.154 41.6951 222.061C41.7097 221.968 41.7317 221.88 41.7609 221.798C41.7073 221.866 41.6439 221.927 41.5708 221.98C41.4977 222.034 41.4197 222.088 41.3368 222.141L40.1814 222.814L39.75 222.083L40.9127 221.41C41.0979 221.303 41.2734 221.235 41.4392 221.206C41.2685 221.176 41.093 221.106 40.9127 220.994L39.75 220.314L40.1741 219.583L41.3368 220.27C41.4246 220.323 41.505 220.38 41.5781 220.438C41.6512 220.492 41.7171 220.553 41.7756 220.621C41.7122 220.46 41.6805 220.277 41.6805 220.073V218.72H42.5434V220.058C42.5434 220.16 42.5361 220.258 42.5214 220.35C42.5117 220.443 42.4897 220.531 42.4556 220.614C42.5141 220.545 42.5799 220.484 42.6531 220.431C42.7262 220.377 42.8042 220.323 42.8871 220.27L44.0424 219.597L44.4739 220.328L43.3112 220.994ZM50.5571 225.189C50.5571 224.956 50.5228 224.736 50.4547 224.532C50.3912 224.322 50.2938 224.139 50.1622 223.983C50.0306 223.828 49.8624 223.706 49.6576 223.618C49.4574 223.525 49.2234 223.479 48.9556 223.479C48.4337 223.479 48.0219 223.627 47.7198 223.925C47.4223 224.222 47.2322 224.644 47.1494 225.189H50.5571ZM47.1129 226.279C47.1421 226.664 47.2102 226.997 47.3176 227.28C47.4246 227.558 47.5662 227.789 47.7417 227.974C47.9172 228.155 48.1243 228.291 48.3633 228.384C48.6069 228.472 48.8752 228.515 49.1677 228.515C49.4602 228.515 49.7111 228.481 49.9209 228.413C50.1352 228.345 50.3203 228.269 50.4766 228.186C50.6375 228.104 50.7764 228.028 50.8934 227.96C51.015 227.892 51.132 227.858 51.2444 227.858C51.3952 227.858 51.5077 227.914 51.5808 228.026L52.1 228.684C51.8998 228.917 51.6759 229.115 51.4272 229.276C51.1786 229.431 50.9177 229.558 50.6448 229.656C50.3765 229.748 50.1009 229.814 49.8185 229.853C49.5406 229.892 49.2701 229.912 49.0068 229.912C48.4849 229.912 48 229.826 47.5516 229.656C47.1028 229.48 46.713 229.224 46.3816 228.888C46.0498 228.547 45.7893 228.128 45.5991 227.631C45.409 227.129 45.3139 226.549 45.3139 225.891C45.3139 225.38 45.3968 224.899 45.5625 224.451C45.7281 223.998 45.9648 223.606 46.2719 223.274C46.5836 222.938 46.9616 222.673 47.4054 222.478C47.8537 222.282 48.3583 222.185 48.9191 222.185C49.3916 222.185 49.8281 222.261 50.228 222.412C50.6274 222.563 50.9711 222.785 51.2591 223.077C51.5465 223.364 51.7709 223.72 51.9318 224.144C52.0972 224.563 52.1804 225.043 52.1804 225.584C52.1804 225.857 52.1512 226.042 52.0927 226.14C52.0342 226.232 51.9217 226.279 51.7563 226.279H47.1129ZM60.12 229.802H58.3796C58.248 229.802 58.1406 229.768 58.0578 229.7C57.9797 229.632 57.9139 229.553 57.8604 229.466L56.2736 226.856C56.2489 226.939 56.2197 227.017 56.1859 227.09C56.1566 227.163 56.1223 227.231 56.0835 227.295L54.679 229.466C54.6255 229.548 54.5597 229.627 54.482 229.7C54.4039 229.768 54.3065 229.802 54.1895 229.802H52.5735L55.1475 225.935L52.6758 222.302H54.4162C54.5478 222.302 54.6452 222.322 54.7087 222.361C54.7718 222.395 54.828 222.453 54.8769 222.536L56.4491 225.036C56.5026 224.87 56.578 224.707 56.6758 224.546L57.9408 222.573C58.0478 222.392 58.1867 222.302 58.3577 222.302H60.0176L57.5533 225.855L60.12 229.802ZM66.0943 223.888C66.0408 223.956 65.9873 224.01 65.9334 224.049C65.885 224.088 65.8118 224.108 65.714 224.108C65.6217 224.108 65.5312 224.081 65.4435 224.027C65.3557 223.969 65.2511 223.905 65.129 223.837C65.0075 223.764 64.8612 223.701 64.6903 223.647C64.5248 223.589 64.3174 223.559 64.0687 223.559C63.752 223.559 63.4741 223.618 63.2351 223.735C62.9965 223.847 62.7963 224.01 62.6355 224.225C62.4796 224.439 62.3626 224.7 62.2845 225.007C62.2068 225.309 62.1675 225.652 62.1675 226.037C62.1675 226.437 62.2091 226.793 62.2918 227.105C62.3795 227.417 62.5038 227.68 62.6647 227.894C62.8256 228.104 63.0207 228.265 63.2497 228.377C63.4792 228.484 63.7374 228.537 64.0248 228.537C64.3128 228.537 64.544 228.503 64.7195 228.435C64.9001 228.362 65.0513 228.284 65.1729 228.201C65.2949 228.113 65.3996 228.035 65.4873 227.967C65.5801 227.894 65.6825 227.858 65.7945 227.858C65.9407 227.858 66.0504 227.914 66.1235 228.026L66.6427 228.684C66.443 228.917 66.2259 229.115 65.9919 229.276C65.7579 229.431 65.5143 229.558 65.2607 229.656C65.012 229.748 64.7538 229.814 64.4855 229.853C64.2223 229.892 63.959 229.912 63.6958 229.912C63.2328 229.912 62.7963 229.826 62.3868 229.656C61.9773 229.48 61.619 229.227 61.3119 228.896C61.0048 228.564 60.7612 228.16 60.5807 227.682C60.4052 227.2 60.3174 226.651 60.3174 226.037C60.3174 225.487 60.3956 224.977 60.5514 224.51C60.7123 224.037 60.9463 223.63 61.2534 223.289C61.5605 222.943 61.9408 222.673 62.3942 222.478C62.8475 222.282 63.3695 222.185 63.959 222.185C64.5198 222.185 65.0098 222.275 65.4288 222.456C65.853 222.636 66.2332 222.894 66.5696 223.23L66.0943 223.888ZM69.6034 218.94V229.802H67.7972V218.94H69.6034ZM77.867 222.302V229.802H76.7628C76.5242 229.802 76.3729 229.692 76.3094 229.473L76.1851 228.874C75.878 229.186 75.5393 229.439 75.1686 229.634C74.7984 229.824 74.362 229.919 73.8597 229.919C73.4502 229.919 73.0873 229.851 72.7701 229.714C72.4584 229.573 72.1952 229.376 71.9804 229.122C71.766 228.869 71.6029 228.569 71.4905 228.223C71.3835 227.872 71.3296 227.487 71.3296 227.068V222.302H73.1358V227.068C73.1358 227.526 73.2409 227.882 73.4502 228.135C73.665 228.384 73.984 228.508 74.4081 228.508C74.7203 228.508 75.0128 228.44 75.2856 228.303C75.5589 228.162 75.8172 227.969 76.0608 227.726V222.302H77.867ZM84.3673 224.217C84.1626 223.969 83.9382 223.793 83.6946 223.691C83.4555 223.589 83.1973 223.537 82.9194 223.537C82.6461 223.537 82.4002 223.589 82.1809 223.691C81.9615 223.793 81.7737 223.949 81.6178 224.159C81.4615 224.363 81.3422 224.627 81.2595 224.948C81.1763 225.265 81.1352 225.64 81.1352 226.074C81.1352 226.513 81.169 226.885 81.2376 227.192C81.3107 227.494 81.4131 227.743 81.5447 227.938C81.6763 228.128 81.8372 228.267 82.0273 228.355C82.2174 228.437 82.4295 228.479 82.6635 228.479C83.0387 228.479 83.3582 228.401 83.6214 228.245C83.8847 228.089 84.1333 227.867 84.3673 227.58V224.217ZM86.1735 218.94V229.802H85.0693C84.8303 229.802 84.679 229.692 84.6159 229.473L84.4624 228.749C84.1598 229.095 83.8116 229.376 83.4167 229.59C83.0264 229.804 82.5707 229.912 82.0492 229.912C81.6397 229.912 81.2641 229.826 80.9231 229.656C80.5817 229.485 80.2869 229.239 80.0383 228.917C79.7943 228.591 79.6041 228.189 79.4679 227.711C79.3363 227.234 79.2705 226.688 79.2705 226.074C79.2705 225.518 79.3459 225.002 79.4972 224.524C79.648 224.047 79.8651 223.632 80.148 223.282C80.4304 222.931 80.7696 222.658 81.1644 222.463C81.5593 222.263 82.0026 222.163 82.4953 222.163C82.9144 222.163 83.2727 222.229 83.5702 222.361C83.8673 222.492 84.1333 222.67 84.3673 222.894V218.94H86.1735ZM89.8279 222.302V229.802H88.0144V222.302H89.8279ZM90.0765 220.116C90.0765 220.272 90.045 220.418 89.9815 220.555C89.918 220.692 89.8329 220.811 89.7255 220.913C89.6232 221.016 89.5011 221.098 89.3599 221.162C89.2187 221.22 89.0674 221.249 88.9065 221.249C88.7507 221.249 88.6017 221.22 88.4605 221.162C88.3238 221.098 88.2045 221.016 88.1022 220.913C87.9998 220.811 87.9171 220.692 87.8535 220.555C87.795 220.418 87.7658 220.272 87.7658 220.116C87.7658 219.956 87.795 219.804 87.8535 219.663C87.9171 219.522 87.9998 219.4 88.1022 219.298C88.2045 219.195 88.3238 219.115 88.4605 219.057C88.6017 218.993 88.7507 218.962 88.9065 218.962C89.0674 218.962 89.2187 218.993 89.3599 219.057C89.5011 219.115 89.6232 219.195 89.7255 219.298C89.8329 219.4 89.918 219.522 89.9815 219.663C90.045 219.804 90.0765 219.956 90.0765 220.116ZM93.3585 223.223C93.5098 223.072 93.6679 222.933 93.8338 222.806C94.0043 222.675 94.1825 222.565 94.3676 222.478C94.5577 222.385 94.7602 222.314 94.9745 222.266C95.1889 222.212 95.4229 222.185 95.6765 222.185C96.086 222.185 96.4494 222.256 96.7661 222.397C97.0828 222.534 97.3461 222.728 97.5559 222.982C97.7702 223.23 97.9311 223.53 98.0385 223.881C98.1505 224.227 98.2067 224.61 98.2067 225.029V229.802H96.4005V225.029C96.4005 224.57 96.2958 224.217 96.086 223.969C95.8763 223.715 95.5573 223.589 95.1281 223.589C94.816 223.589 94.5235 223.659 94.2506 223.801C93.9778 223.942 93.7191 224.135 93.4755 224.378V229.802H91.6693V222.302H92.7735C93.0075 222.302 93.161 222.412 93.2342 222.631L93.3585 223.223ZM102.667 225.869C102.891 225.869 103.086 225.84 103.252 225.782C103.417 225.718 103.554 225.633 103.661 225.526C103.773 225.418 103.856 225.29 103.91 225.138C103.968 224.987 103.998 224.822 103.998 224.641C103.998 224.271 103.885 223.978 103.661 223.764C103.442 223.545 103.11 223.435 102.667 223.435C102.223 223.435 101.889 223.545 101.665 223.764C101.446 223.978 101.336 224.271 101.336 224.641C101.336 224.817 101.362 224.98 101.416 225.131C101.475 225.282 101.558 225.414 101.665 225.526C101.777 225.633 101.916 225.718 102.082 225.782C102.252 225.84 102.447 225.869 102.667 225.869ZM104.707 230.138C104.707 229.992 104.663 229.873 104.575 229.78C104.488 229.687 104.368 229.617 104.217 229.568C104.066 229.515 103.888 229.475 103.683 229.451C103.483 229.427 103.269 229.409 103.04 229.4C102.815 229.385 102.581 229.373 102.338 229.363C102.099 229.354 101.865 229.334 101.636 229.305C101.436 229.417 101.272 229.548 101.146 229.7C101.024 229.851 100.963 230.026 100.963 230.226C100.963 230.357 100.995 230.479 101.058 230.591C101.126 230.708 101.231 230.808 101.373 230.891C101.519 230.974 101.706 231.037 101.936 231.081C102.165 231.13 102.445 231.154 102.777 231.154C103.113 231.154 103.403 231.127 103.647 231.074C103.89 231.025 104.09 230.955 104.246 230.862C104.407 230.774 104.524 230.667 104.597 230.54C104.67 230.418 104.707 230.284 104.707 230.138ZM106.506 222.558V223.23C106.506 223.445 106.377 223.576 106.118 223.625L105.446 223.749C105.548 224.008 105.599 224.29 105.599 224.597C105.599 224.968 105.523 225.304 105.372 225.606C105.226 225.904 105.021 226.157 104.758 226.366C104.495 226.576 104.183 226.739 103.822 226.856C103.466 226.968 103.081 227.024 102.667 227.024C102.521 227.024 102.379 227.017 102.243 227.002C102.106 226.988 101.972 226.968 101.841 226.944C101.607 227.085 101.49 227.244 101.49 227.419C101.49 227.57 101.558 227.682 101.694 227.755C101.835 227.823 102.021 227.872 102.25 227.901C102.479 227.931 102.74 227.95 103.032 227.96C103.325 227.965 103.625 227.98 103.932 228.004C104.239 228.028 104.539 228.072 104.831 228.135C105.124 228.194 105.384 228.289 105.614 228.42C105.843 228.552 106.026 228.732 106.162 228.961C106.303 229.186 106.374 229.475 106.374 229.831C106.374 230.162 106.291 230.484 106.126 230.796C105.965 231.108 105.728 231.386 105.416 231.629C105.109 231.873 104.729 232.068 104.276 232.214C103.827 232.365 103.315 232.441 102.74 232.441C102.174 232.441 101.682 232.385 101.263 232.273C100.843 232.165 100.495 232.019 100.217 231.834C99.9393 231.654 99.7318 231.444 99.5956 231.205C99.4589 230.966 99.3908 230.718 99.3908 230.46C99.3908 230.109 99.4955 229.817 99.7053 229.583C99.9196 229.344 100.212 229.154 100.583 229.012C100.383 228.91 100.224 228.774 100.107 228.603C99.9905 228.433 99.932 228.208 99.932 227.931C99.932 227.819 99.9512 227.704 99.9905 227.587C100.034 227.465 100.095 227.346 100.173 227.229C100.256 227.112 100.358 227.002 100.48 226.9C100.602 226.793 100.746 226.698 100.911 226.615C100.532 226.41 100.232 226.137 100.012 225.796C99.7976 225.455 99.6907 225.056 99.6907 224.597C99.6907 224.227 99.7638 223.893 99.91 223.596C100.061 223.294 100.268 223.038 100.532 222.828C100.799 222.614 101.114 222.451 101.475 222.339C101.841 222.227 102.238 222.171 102.667 222.171C102.989 222.171 103.291 222.205 103.574 222.273C103.856 222.336 104.115 222.431 104.349 222.558H106.506ZM113.035 218.94V229.802H111.229V218.94H113.035ZM118.799 226.6C118.277 226.624 117.838 226.671 117.482 226.739C117.126 226.803 116.841 226.885 116.627 226.988C116.412 227.09 116.258 227.209 116.166 227.346C116.073 227.482 116.027 227.631 116.027 227.792C116.027 228.108 116.12 228.335 116.305 228.472C116.495 228.608 116.741 228.676 117.044 228.676C117.414 228.676 117.733 228.61 118.002 228.479C118.274 228.342 118.54 228.138 118.799 227.865V226.6ZM114.66 223.347C115.523 222.558 116.561 222.163 117.775 222.163C118.214 222.163 118.606 222.236 118.952 222.382C119.298 222.524 119.591 222.724 119.83 222.982C120.068 223.235 120.249 223.54 120.371 223.896C120.497 224.252 120.561 224.641 120.561 225.065V229.802H119.742C119.571 229.802 119.439 229.778 119.347 229.729C119.254 229.675 119.181 229.57 119.128 229.415L118.967 228.874C118.777 229.044 118.591 229.195 118.411 229.327C118.231 229.453 118.043 229.561 117.848 229.648C117.653 229.736 117.443 229.802 117.219 229.846C117 229.895 116.756 229.919 116.488 229.919C116.171 229.919 115.878 229.877 115.61 229.795C115.342 229.707 115.11 229.578 114.916 229.407C114.721 229.237 114.569 229.025 114.462 228.771C114.355 228.518 114.301 228.223 114.301 227.887C114.301 227.697 114.333 227.509 114.397 227.324C114.46 227.134 114.562 226.953 114.704 226.783C114.85 226.613 115.037 226.452 115.267 226.301C115.496 226.149 115.776 226.018 116.108 225.906C116.444 225.794 116.834 225.703 117.278 225.635C117.721 225.562 118.228 225.518 118.799 225.504V225.065C118.799 224.563 118.691 224.193 118.477 223.954C118.262 223.711 117.953 223.589 117.548 223.589C117.256 223.589 117.012 223.623 116.817 223.691C116.627 223.759 116.459 223.837 116.312 223.925C116.166 224.008 116.032 224.083 115.91 224.151C115.793 224.22 115.662 224.254 115.515 224.254C115.388 224.254 115.281 224.222 115.194 224.159C115.106 224.091 115.035 224.013 114.982 223.925L114.66 223.347ZM124.068 227.858C124.273 228.106 124.495 228.282 124.734 228.384C124.977 228.486 125.233 228.537 125.501 228.537C125.779 228.537 126.028 228.488 126.247 228.391C126.471 228.289 126.661 228.133 126.818 227.923C126.974 227.709 127.093 227.439 127.176 227.112C127.259 226.781 127.3 226.386 127.3 225.928C127.3 225.104 127.164 224.51 126.891 224.144C126.618 223.774 126.225 223.589 125.714 223.589C125.367 223.589 125.065 223.669 124.807 223.83C124.548 223.986 124.302 224.208 124.068 224.495V227.858ZM124.068 223.223C124.37 222.907 124.704 222.655 125.07 222.47C125.44 222.28 125.862 222.185 126.335 222.185C126.769 222.185 127.159 222.271 127.505 222.441C127.856 222.611 128.153 222.858 128.397 223.179C128.646 223.496 128.836 223.881 128.968 224.334C129.099 224.787 129.165 225.297 129.165 225.862C129.165 226.471 129.089 227.024 128.938 227.521C128.787 228.018 128.57 228.445 128.288 228.801C128.01 229.151 127.673 229.424 127.278 229.619C126.884 229.814 126.445 229.912 125.962 229.912C125.728 229.912 125.516 229.887 125.326 229.838C125.136 229.795 124.96 229.731 124.799 229.648C124.639 229.566 124.49 229.466 124.353 229.349C124.222 229.227 124.095 229.093 123.973 228.947L123.893 229.451C123.863 229.578 123.812 229.668 123.739 229.722C123.671 229.775 123.576 229.802 123.454 229.802H122.262V218.94H124.068V223.223ZM135.393 225.189C135.393 224.956 135.359 224.736 135.291 224.532C135.228 224.322 135.13 224.139 134.999 223.983C134.867 223.828 134.699 223.706 134.494 223.618C134.294 223.525 134.06 223.479 133.792 223.479C133.27 223.479 132.858 223.627 132.556 223.925C132.259 224.222 132.069 224.644 131.986 225.189H135.393ZM131.949 226.279C131.979 226.664 132.047 226.997 132.154 227.28C132.261 227.558 132.403 227.789 132.578 227.974C132.754 228.155 132.961 228.291 133.2 228.384C133.443 228.472 133.712 228.515 134.004 228.515C134.297 228.515 134.548 228.481 134.757 228.413C134.972 228.345 135.157 228.269 135.313 228.186C135.474 228.104 135.613 228.028 135.73 227.96C135.851 227.892 135.968 227.858 136.081 227.858C136.232 227.858 136.344 227.914 136.417 228.026L136.936 228.684C136.736 228.917 136.512 229.115 136.264 229.276C136.015 229.431 135.754 229.558 135.481 229.656C135.213 229.748 134.937 229.814 134.655 229.853C134.377 229.892 134.106 229.912 133.843 229.912C133.321 229.912 132.836 229.826 132.388 229.656C131.939 229.48 131.549 229.224 131.218 228.888C130.886 228.547 130.626 228.128 130.436 227.631C130.245 227.129 130.15 226.549 130.15 225.891C130.15 225.38 130.233 224.899 130.399 224.451C130.564 223.998 130.801 223.606 131.108 223.274C131.42 222.938 131.798 222.673 132.242 222.478C132.69 222.282 133.195 222.185 133.755 222.185C134.228 222.185 134.665 222.261 135.064 222.412C135.464 222.563 135.808 222.785 136.095 223.077C136.383 223.364 136.607 223.72 136.768 224.144C136.934 224.563 137.017 225.043 137.017 225.584C137.017 225.857 136.988 226.042 136.929 226.14C136.871 226.232 136.758 226.279 136.593 226.279H131.949ZM140.201 218.94V229.802H138.394V218.94H140.201ZM149.519 226.6C148.998 226.624 148.559 226.671 148.203 226.739C147.848 226.803 147.562 226.885 147.348 226.988C147.133 227.09 146.98 227.209 146.887 227.346C146.795 227.482 146.748 227.631 146.748 227.792C146.748 228.108 146.841 228.335 147.026 228.472C147.216 228.608 147.462 228.676 147.764 228.676C148.135 228.676 148.455 228.61 148.722 228.479C148.996 228.342 149.261 228.138 149.519 227.865V226.6ZM145.381 223.347C146.243 222.558 147.282 222.163 148.496 222.163C148.934 222.163 149.327 222.236 149.673 222.382C150.019 222.524 150.312 222.724 150.55 222.982C150.789 223.235 150.97 223.54 151.092 223.896C151.219 224.252 151.282 224.641 151.282 225.065V229.802H150.463C150.292 229.802 150.161 229.778 150.068 229.729C149.976 229.675 149.902 229.57 149.848 229.415L149.688 228.874C149.497 229.044 149.312 229.195 149.132 229.327C148.952 229.453 148.764 229.561 148.569 229.648C148.374 229.736 148.164 229.802 147.94 229.846C147.721 229.895 147.477 229.919 147.209 229.919C146.892 229.919 146.599 229.877 146.331 229.795C146.063 229.707 145.832 229.578 145.636 229.407C145.442 229.237 145.29 229.025 145.183 228.771C145.076 228.518 145.022 228.223 145.022 227.887C145.022 227.697 145.054 227.509 145.117 227.324C145.181 227.134 145.283 226.953 145.424 226.783C145.571 226.613 145.758 226.452 145.987 226.301C146.217 226.149 146.497 226.018 146.828 225.906C147.165 225.794 147.555 225.703 147.998 225.635C148.442 225.562 148.949 225.518 149.519 225.504V225.065C149.519 224.563 149.412 224.193 149.198 223.954C148.983 223.711 148.674 223.589 148.269 223.589C147.976 223.589 147.733 223.623 147.538 223.691C147.348 223.759 147.179 223.837 147.033 223.925C146.887 224.008 146.753 224.083 146.631 224.151C146.514 224.22 146.382 224.254 146.236 224.254C146.109 224.254 146.002 224.222 145.914 224.159C145.827 224.091 145.756 224.013 145.702 223.925L145.381 223.347ZM154.672 223.223C154.823 223.072 154.982 222.933 155.147 222.806C155.318 222.675 155.496 222.565 155.681 222.478C155.871 222.385 156.074 222.314 156.288 222.266C156.503 222.212 156.737 222.185 156.99 222.185C157.4 222.185 157.763 222.256 158.08 222.397C158.397 222.534 158.66 222.728 158.869 222.982C159.084 223.23 159.245 223.53 159.352 223.881C159.464 224.227 159.52 224.61 159.52 225.029V229.802H157.714V225.029C157.714 224.57 157.609 224.217 157.4 223.969C157.19 223.715 156.871 223.589 156.442 223.589C156.13 223.589 155.837 223.659 155.564 223.801C155.291 223.942 155.033 224.135 154.789 224.378V229.802H152.983V222.302H154.087C154.321 222.302 154.475 222.412 154.548 222.631L154.672 223.223ZM165.947 224.217C165.743 223.969 165.518 223.793 165.275 223.691C165.036 223.589 164.777 223.537 164.5 223.537C164.226 223.537 163.98 223.589 163.761 223.691C163.542 223.793 163.354 223.949 163.198 224.159C163.042 224.363 162.922 224.627 162.84 224.948C162.756 225.265 162.715 225.64 162.715 226.074C162.715 226.513 162.749 226.885 162.818 227.192C162.891 227.494 162.993 227.743 163.125 227.938C163.256 228.128 163.417 228.267 163.607 228.355C163.798 228.437 164.01 228.479 164.244 228.479C164.619 228.479 164.938 228.401 165.201 228.245C165.465 228.089 165.713 227.867 165.947 227.58V224.217ZM167.754 218.94V229.802H166.649C166.41 229.802 166.259 229.692 166.196 229.473L166.042 228.749C165.74 229.095 165.392 229.376 164.997 229.59C164.606 229.804 164.151 229.912 163.629 229.912C163.22 229.912 162.844 229.826 162.503 229.656C162.162 229.485 161.867 229.239 161.618 228.917C161.374 228.591 161.184 228.189 161.048 227.711C160.916 227.234 160.851 226.688 160.851 226.074C160.851 225.518 160.926 225.002 161.077 224.524C161.228 224.047 161.445 223.632 161.728 223.282C162.011 222.931 162.35 222.658 162.745 222.463C163.139 222.263 163.583 222.163 164.075 222.163C164.494 222.163 164.853 222.229 165.15 222.361C165.447 222.492 165.713 222.67 165.947 222.894V218.94H167.754ZM178.467 223.888C178.413 223.956 178.36 224.01 178.306 224.049C178.258 224.088 178.184 224.108 178.087 224.108C177.994 224.108 177.904 224.081 177.816 224.027C177.728 223.969 177.624 223.905 177.502 223.837C177.38 223.764 177.234 223.701 177.063 223.647C176.897 223.589 176.69 223.559 176.441 223.559C176.125 223.559 175.847 223.618 175.608 223.735C175.369 223.847 175.169 224.01 175.008 224.225C174.852 224.439 174.735 224.7 174.657 225.007C174.579 225.309 174.54 225.652 174.54 226.037C174.54 226.437 174.582 226.793 174.664 227.105C174.752 227.417 174.876 227.68 175.037 227.894C175.198 228.104 175.393 228.265 175.622 228.377C175.852 228.484 176.11 228.537 176.397 228.537C176.685 228.537 176.917 228.503 177.092 228.435C177.273 228.362 177.424 228.284 177.545 228.201C177.667 228.113 177.772 228.035 177.86 227.967C177.953 227.894 178.055 227.858 178.167 227.858C178.313 227.858 178.423 227.914 178.496 228.026L179.015 228.684C178.816 228.917 178.598 229.115 178.364 229.276C178.13 229.431 177.887 229.558 177.633 229.656C177.385 229.748 177.126 229.814 176.858 229.853C176.595 229.892 176.332 229.912 176.068 229.912C175.605 229.912 175.169 229.826 174.759 229.656C174.35 229.48 173.992 229.227 173.684 228.896C173.377 228.564 173.134 228.16 172.953 227.682C172.778 227.2 172.69 226.651 172.69 226.037C172.69 225.487 172.768 224.977 172.924 224.51C173.085 224.037 173.319 223.63 173.626 223.289C173.933 222.943 174.313 222.673 174.767 222.478C175.22 222.282 175.742 222.185 176.332 222.185C176.892 222.185 177.382 222.275 177.801 222.456C178.226 222.636 178.606 222.894 178.942 223.23L178.467 223.888ZM184.111 226.6C183.589 226.624 183.15 226.671 182.795 226.739C182.439 226.803 182.154 226.885 181.939 226.988C181.725 227.09 181.571 227.209 181.479 227.346C181.386 227.482 181.34 227.631 181.34 227.792C181.34 228.108 181.432 228.335 181.618 228.472C181.808 228.608 182.054 228.676 182.356 228.676C182.726 228.676 183.046 228.61 183.314 228.479C183.587 228.342 183.852 228.138 184.111 227.865V226.6ZM179.972 223.347C180.835 222.558 181.874 222.163 183.087 222.163C183.526 222.163 183.918 222.236 184.265 222.382C184.611 222.524 184.903 222.724 185.142 222.982C185.381 223.235 185.561 223.54 185.683 223.896C185.81 224.252 185.873 224.641 185.873 225.065V229.802H185.054C184.884 229.802 184.752 229.778 184.66 229.729C184.567 229.675 184.494 229.57 184.44 229.415L184.279 228.874C184.089 229.044 183.904 229.195 183.724 229.327C183.543 229.453 183.355 229.561 183.161 229.648C182.965 229.736 182.756 229.802 182.532 229.846C182.312 229.895 182.068 229.919 181.8 229.919C181.483 229.919 181.191 229.877 180.923 229.795C180.655 229.707 180.423 229.578 180.228 229.407C180.033 229.237 179.882 229.025 179.775 228.771C179.667 228.518 179.614 228.223 179.614 227.887C179.614 227.697 179.646 227.509 179.709 227.324C179.772 227.134 179.874 226.953 180.016 226.783C180.162 226.613 180.35 226.452 180.579 226.301C180.808 226.149 181.088 226.018 181.42 225.906C181.757 225.794 182.146 225.703 182.59 225.635C183.033 225.562 183.541 225.518 184.111 225.504V225.065C184.111 224.563 184.004 224.193 183.789 223.954C183.575 223.711 183.265 223.589 182.861 223.589C182.568 223.589 182.324 223.623 182.129 223.691C181.939 223.759 181.771 223.837 181.625 223.925C181.479 224.008 181.344 224.083 181.223 224.151C181.106 224.22 180.974 224.254 180.828 224.254C180.701 224.254 180.594 224.222 180.506 224.159C180.418 224.091 180.348 224.013 180.294 223.925L179.972 223.347ZM189.381 227.858C189.585 228.106 189.807 228.282 190.046 228.384C190.29 228.486 190.553 228.537 190.836 228.537C191.109 228.537 191.355 228.486 191.574 228.384C191.794 228.282 191.979 228.126 192.13 227.916C192.286 227.706 192.405 227.443 192.489 227.127C192.571 226.805 192.613 226.427 192.613 225.994C192.613 225.555 192.576 225.184 192.503 224.882C192.435 224.575 192.335 224.327 192.203 224.137C192.072 223.947 191.911 223.808 191.721 223.72C191.535 223.632 191.323 223.589 191.085 223.589C190.709 223.589 190.39 223.669 190.127 223.83C189.863 223.986 189.615 224.208 189.381 224.495V227.858ZM189.286 223.325C189.593 222.98 189.941 222.699 190.331 222.485C190.721 222.271 191.18 222.163 191.706 222.163C192.116 222.163 192.489 222.249 192.825 222.419C193.166 222.589 193.458 222.838 193.702 223.165C193.951 223.486 194.141 223.886 194.273 224.363C194.409 224.836 194.478 225.38 194.478 225.994C194.478 226.554 194.402 227.073 194.251 227.551C194.1 228.028 193.883 228.442 193.6 228.793C193.322 229.144 192.983 229.42 192.584 229.619C192.189 229.814 191.745 229.912 191.253 229.912C190.833 229.912 190.475 229.848 190.178 229.722C189.88 229.59 189.615 229.41 189.381 229.181V232.251H187.575V222.302H188.679C188.913 222.302 189.066 222.412 189.139 222.631L189.286 223.325Z" fill="#007855"/>
<path d="M89.3593 123.967L90.6463 128.389L74.2553 133.155L72.9688 128.733L78.4979 127.125L74.2763 112.615C74.1689 112.247 74.0684 111.877 73.9742 111.504C73.8764 111.119 73.785 110.731 73.7005 110.342L71.2151 114.019C70.9903 114.327 70.7412 114.55 70.4665 114.687C70.2019 114.806 69.9382 114.883 69.6768 114.916C69.4112 114.936 69.1626 114.916 68.9309 114.855C68.6951 114.78 68.5118 114.691 68.3815 114.586L65.6992 112.583L72.4765 102.455L77.5322 100.985L84.6199 125.345L89.3593 123.967ZM110.732 106.94C111.464 109.454 111.827 111.711 111.824 113.71C111.82 115.709 111.514 117.454 110.905 118.944C110.31 120.431 109.439 121.662 108.295 122.637C107.164 123.607 105.835 124.315 104.308 124.759C102.781 125.203 101.28 125.319 99.8038 125.105C98.3413 124.888 96.9597 124.312 95.6594 123.377C94.3592 122.442 93.1714 121.131 92.0955 119.446C91.0329 117.756 90.1358 115.655 89.4045 113.142C88.6728 110.628 88.3026 108.373 88.293 106.378C88.2967 104.378 88.5965 102.635 89.192 101.149C89.7875 99.6624 90.6463 98.4421 91.7683 97.4881C92.899 96.5169 94.228 95.8092 95.7554 95.3651C97.2828 94.921 98.7842 94.8059 100.26 95.0193C101.745 95.2153 103.137 95.7813 104.438 96.7165C105.751 97.6476 106.945 98.956 108.021 100.641C109.097 102.327 110.001 104.427 110.732 106.94ZM104.413 108.778C103.835 106.79 103.237 105.201 102.619 104.011C101.998 102.807 101.371 101.904 100.739 101.303C100.12 100.698 99.509 100.34 98.9057 100.23C98.2988 100.107 97.7252 100.124 97.1855 100.28C96.6457 100.438 96.153 100.731 95.7065 101.16C95.2696 101.573 94.9524 102.2 94.755 103.043C94.5708 103.881 94.5393 104.976 94.6604 106.325C94.7911 107.657 95.1457 109.317 95.7239 111.304C96.3057 113.304 96.8989 114.902 97.5036 116.097C98.1215 117.287 98.7348 118.194 99.3445 118.816C99.9633 119.421 100.569 119.787 101.163 119.914C101.766 120.024 102.338 120.001 102.878 119.844C103.418 119.687 103.913 119.4 104.363 118.984C104.809 118.555 105.131 117.919 105.328 117.076C105.535 116.216 105.58 115.118 105.462 113.783C105.345 112.446 104.995 110.778 104.413 108.778ZM133.643 100.279C134.375 102.793 134.738 105.049 134.735 107.049C134.731 109.048 134.425 110.793 133.816 112.283C133.22 113.769 132.35 115 131.206 115.975C130.075 116.946 128.746 117.654 127.219 118.098C125.691 118.542 124.19 118.657 122.714 118.444C121.252 118.227 119.871 117.651 118.57 116.716C117.27 115.78 116.082 114.47 115.006 112.785C113.943 111.095 113.047 108.994 112.315 106.48C111.584 103.966 111.214 101.712 111.204 99.7163C111.208 97.717 111.507 95.9741 112.103 94.4875C112.698 93.0013 113.557 91.781 114.679 90.8266C115.81 89.8558 117.139 89.1481 118.666 88.704C120.193 88.26 121.695 88.1444 123.17 88.3577C124.656 88.5542 126.048 89.1198 127.348 90.055C128.662 90.9865 129.856 92.295 130.932 93.9804C132.008 95.6657 132.912 97.7655 133.643 100.279ZM127.324 102.117C126.745 100.129 126.148 98.5403 125.53 97.3497C124.908 96.1459 124.281 95.2431 123.649 94.6419C123.031 94.0366 122.42 93.6788 121.817 93.5687C121.21 93.4458 120.636 93.4623 120.096 93.6194C119.557 93.7761 119.064 94.0694 118.617 94.4989C118.181 94.9114 117.863 95.5392 117.666 96.3816C117.482 97.22 117.45 98.3142 117.571 99.6633C117.702 100.996 118.056 102.656 118.634 104.643C119.217 106.643 119.81 108.24 120.415 109.435C121.032 110.626 121.646 111.532 122.255 112.154C122.874 112.76 123.48 113.126 124.074 113.253C124.677 113.363 125.249 113.339 125.789 113.182C126.329 113.026 126.823 112.739 127.273 112.322C127.72 111.893 128.041 111.257 128.239 110.415C128.446 109.555 128.49 108.457 128.373 107.121C128.255 105.785 127.906 104.117 127.324 102.117ZM147.409 88.2476C147.715 89.3003 147.804 90.3168 147.675 91.2963C147.546 92.2758 147.257 93.1735 146.809 93.9886C146.357 94.7913 145.76 95.4857 145.017 96.0728C144.287 96.6562 143.468 97.0802 142.56 97.3442C141.559 97.6348 140.587 97.7317 139.646 97.6348C138.716 97.5338 137.853 97.2638 137.054 96.8252C136.264 96.3697 135.572 95.7571 134.977 94.9882C134.382 94.2193 133.931 93.3083 133.625 92.2552C133.307 91.1629 133.191 90.1263 133.277 89.1449C133.359 88.1503 133.611 87.2494 134.033 86.4417C134.467 85.6298 135.05 84.9326 135.78 84.3492C136.519 83.7489 137.389 83.303 138.39 83.0125C139.39 82.7214 140.363 82.631 141.309 82.7415C142.264 82.8347 143.137 83.1093 143.926 83.5648C144.729 84.0166 145.432 84.6403 146.034 85.4357C146.633 86.2178 147.091 87.1553 147.409 88.2476ZM142.709 89.6141C142.514 88.943 142.294 88.4075 142.049 88.0073C141.813 87.5907 141.559 87.2795 141.284 87.0735C141.011 86.8679 140.72 86.7523 140.413 86.7277C140.119 86.6989 139.814 86.7304 139.498 86.8222C139.182 86.9141 138.908 87.0511 138.675 87.2329C138.442 87.4148 138.272 87.6642 138.164 87.9808C138.056 88.2974 138.015 88.6949 138.04 89.1732C138.061 89.6379 138.169 90.2062 138.364 90.8773C138.548 91.5092 138.754 92.02 138.982 92.4106C139.21 92.8012 139.452 93.0945 139.709 93.2909C139.966 93.4874 140.242 93.6002 140.536 93.629C140.83 93.6573 141.135 93.6258 141.451 93.534C141.767 93.4422 142.041 93.3056 142.274 93.1237C142.52 92.9378 142.705 92.6915 142.83 92.3841C142.954 92.0766 143.008 91.6969 142.991 91.2451C142.987 90.7896 142.893 90.246 142.709 89.6141ZM154.691 79.5577C154.823 79.2762 155.007 79.0017 155.243 78.733C155.475 78.4516 155.848 78.236 156.361 78.0866L160.825 76.7891L147.257 110.987C147.133 111.295 146.944 111.578 146.691 111.837C146.447 112.079 146.114 112.262 145.693 112.384L141.112 113.716L154.691 79.5577ZM168.335 98.4786C168.641 99.5312 168.732 100.554 168.607 101.547C168.477 102.526 168.189 103.424 167.741 104.24C167.289 105.042 166.691 105.736 165.948 106.323C165.218 106.907 164.399 107.331 163.491 107.595C162.49 107.886 161.519 107.983 160.577 107.885C159.648 107.784 158.784 107.514 157.985 107.076C157.196 106.62 156.504 106.008 155.909 105.239C155.31 104.457 154.857 103.539 154.551 102.486C154.233 101.394 154.117 100.357 154.202 99.3759C154.285 98.3813 154.536 97.4804 154.958 96.6726C155.393 95.8608 155.976 95.1632 156.706 94.5802C157.445 93.9799 158.314 93.534 159.315 93.2434C160.316 92.9524 161.289 92.862 162.235 92.9725C163.19 93.0657 164.062 93.3403 164.852 93.7958C165.655 94.2476 166.357 94.8712 166.96 95.6666C167.559 96.4488 168.017 97.3863 168.335 98.4786ZM163.635 99.8451C163.443 99.1868 163.225 98.6582 162.98 98.2584C162.745 97.8413 162.49 97.5302 162.216 97.3241C161.942 97.1185 161.651 97.003 161.344 96.9783C161.05 96.9495 160.745 96.981 160.429 97.0729C160.113 97.1647 159.839 97.3017 159.606 97.4836C159.374 97.6654 159.204 97.9149 159.096 98.2315C158.988 98.5481 158.946 98.9455 158.972 99.4239C158.993 99.8885 159.099 100.45 159.29 101.108C159.474 101.74 159.68 102.251 159.908 102.642C160.136 103.032 160.378 103.325 160.635 103.522C160.892 103.718 161.168 103.831 161.461 103.86C161.756 103.888 162.061 103.857 162.376 103.765C162.693 103.673 162.967 103.537 163.2 103.354C163.445 103.169 163.631 102.922 163.755 102.615C163.88 102.307 163.934 101.927 163.917 101.476C163.912 101.02 163.819 100.477 163.635 99.8451Z" fill="#007855"/>
<path d="M43.875 102.337C43.875 62.0339 76.6812 29.2397 117 29.2397C141.809 29.2397 163.702 41.7184 176.929 60.6624L193.981 35.0936C175.201 13.638 147.693 0.00109863 117 0.00109863C60.5493 0.00109863 14.6251 45.909 14.6251 102.338H0L29.2498 146.197L58.4995 102.338L43.875 102.337Z" fill="#007855"/>
<path d="M37.8451 89.419C37.8704 89.0933 37.8495 88.8255 37.7827 88.6158C37.7162 88.4011 37.6218 88.2307 37.4995 88.1051C37.3773 87.979 37.2351 87.8885 37.0732 87.8332C36.9112 87.778 36.7452 87.7441 36.575 87.7323C36.3804 87.719 36.2033 87.7332 36.0435 87.7757C35.8842 87.8136 35.746 87.8917 35.6293 88.0105C35.5129 88.1247 35.4176 88.2814 35.3434 88.4815C35.2693 88.6816 35.2202 88.937 35.1961 89.2477L35.0629 90.9678L37.7108 91.1533L37.8451 89.419ZM30.7883 90.6681L33.4143 90.8522L33.5136 89.5698C33.5347 89.2975 33.5343 89.0508 33.5123 88.8297C33.4903 88.6081 33.4365 88.4185 33.3509 88.2613C33.2657 88.0991 33.141 87.973 32.9768 87.8835C32.813 87.7889 32.6023 87.7323 32.3445 87.7145C32.0916 87.6966 31.8801 87.7135 31.7098 87.7652C31.5347 87.8163 31.391 87.904 31.2787 88.0283C31.1665 88.1521 31.0805 88.3148 31.021 88.5158C30.9618 88.7118 30.9214 88.9484 30.9 89.2253L30.7883 90.6681ZM29.0545 89.096C29.1113 88.3623 29.2277 87.7428 29.4038 87.237C29.5798 86.7317 29.8045 86.3251 30.0777 86.0167C30.3509 85.7088 30.6707 85.4941 31.037 85.373C31.4036 85.2474 31.8058 85.1999 32.2435 85.2305C32.4818 85.2474 32.7102 85.2977 32.9286 85.3813C33.1421 85.4644 33.3405 85.5859 33.5238 85.7454C33.7021 85.9044 33.8628 86.1036 34.0055 86.3434C34.1483 86.5828 34.2657 86.867 34.3575 87.1959C34.5819 86.5083 34.8968 86.0099 35.3021 85.7015C35.7073 85.3927 36.2115 85.2597 36.8145 85.3018C37.2668 85.3333 37.6807 85.4502 38.0561 85.6526C38.4316 85.855 38.7521 86.136 39.0176 86.4969C39.2785 86.8519 39.4725 87.2832 39.5995 87.7903C39.7216 88.2974 39.758 88.8689 39.7087 89.5054L39.3802 93.7469L28.752 93.0022L29.0545 89.096Z" fill="white"/>
<path d="M37.7877 71.7434C38.5388 71.9138 39.2049 72.2026 39.7859 72.6092C40.3681 73.0112 40.8403 73.5005 41.2024 74.0771C41.5598 74.6527 41.7906 75.3019 41.8947 76.0251C42 76.7433 41.9513 77.504 41.7487 78.3076C41.5461 79.1108 41.2258 79.8125 40.788 80.4124C40.3501 81.0127 39.8339 81.4951 39.2393 81.8597C38.6411 82.2184 37.986 82.4546 37.2739 82.5679C36.563 82.6761 35.8319 82.6451 35.0808 82.4747C34.3297 82.3043 33.663 82.0183 33.0808 81.6162C32.4998 81.2096 32.0306 80.7185 31.6732 80.1428C31.317 79.5626 31.0868 78.9107 30.9827 78.1879C30.8786 77.4647 30.9278 76.7017 31.1304 75.8981C31.3331 75.095 31.6551 74.3964 32.0965 73.802C32.5344 73.2017 33.05 72.722 33.6434 72.362C34.2368 72.002 34.889 71.7676 35.5999 71.6593C36.312 71.546 37.0413 71.5744 37.7877 71.7434ZM37.1691 74.1959C36.6556 74.0794 36.1778 74.041 35.7355 74.0807C35.2886 74.1191 34.8909 74.231 34.5425 74.417C34.1953 74.5979 33.9003 74.8505 33.6576 75.1754C33.4148 75.4997 33.2357 75.8913 33.12 76.3495C33.0032 76.8128 32.975 77.2436 33.0354 77.642C33.0969 78.0353 33.2387 78.3898 33.4608 78.7051C33.6841 79.0157 33.9858 79.2839 34.366 79.5101C34.7415 79.7349 35.186 79.9057 35.6994 80.0222C36.2176 80.1401 36.7002 80.1794 37.1472 80.141C37.5894 80.1013 37.9841 79.9912 38.3313 79.8102C38.6797 79.6243 38.9753 79.3694 39.218 79.0445C39.4572 78.7142 39.6352 78.3177 39.752 77.8544C39.8676 77.3962 39.897 76.9708 39.8402 76.5779C39.7787 76.1846 39.6363 75.8323 39.413 75.5221C39.1909 75.2069 38.8922 74.9369 38.5167 74.7116C38.1365 74.4855 37.6872 74.3137 37.1691 74.1959Z" fill="white"/>
<path d="M38.2554 61.0825L37.0648 63.8328L45.1664 66.9875L44.1848 69.2553L36.0832 66.1007L34.8925 68.851L33.0664 68.1401L36.4293 60.3716L38.2554 61.0825Z" fill="white"/>
<path d="M43.7754 51.6707L42.2183 54.2319L49.8461 58.403L48.5623 60.5146L40.9346 56.343L39.3775 58.9042L37.6582 57.964L42.0561 50.7305L43.7754 51.6707Z" fill="white"/>
<path d="M55.2528 47.8426L56.8615 48.9875L52.8781 54.0213L44.1992 47.844L45.7324 45.906L52.8031 50.9388L55.2528 47.8426Z" fill="white"/>
<path d="M53.4218 40.1145L55.2677 41.779L57.6384 39.4138L58.9958 40.6376L56.6256 43.0028L58.5099 44.7015L61.6049 41.6134L63.0167 42.8862L58.1621 47.7303L50.25 40.5975L55.1046 35.7536L56.5164 37.0264L53.4218 40.1145Z" fill="white"/>
<path d="M63.8689 31.4749C63.8881 31.6083 63.884 31.7225 63.8566 31.8176C63.8333 31.9098 63.772 31.9948 63.672 32.0726C63.5833 32.1415 63.4649 32.1906 63.3164 32.2199C63.1688 32.2424 63.0006 32.2715 62.8123 32.307C62.6281 32.3395 62.4307 32.3943 62.2209 32.4715C62.0074 32.545 61.7954 32.6641 61.5838 32.8288C61.2186 33.1133 61.0107 33.4015 60.9608 33.6933C60.9115 33.9785 60.9969 34.2482 61.2168 34.5025C61.3575 34.6646 61.5276 34.7572 61.7277 34.7802C61.9279 34.8032 62.1482 34.786 62.3882 34.7286C62.6322 34.6683 62.8941 34.5844 63.1747 34.477C63.4558 34.363 63.7487 34.2551 64.0536 34.1535C64.3552 34.0482 64.6637 33.9621 64.9795 33.8953C65.299 33.8255 65.6166 33.8061 65.9333 33.8372C66.2537 33.8652 66.5718 33.9571 66.8867 34.1128C67.1984 34.2647 67.4996 34.5084 67.7898 34.8437C68.112 35.2159 68.3465 35.6165 68.4923 36.0456C68.6385 36.4747 68.6879 36.9112 68.6408 37.355C68.5946 37.7922 68.4434 38.2276 68.1879 38.6611C67.9329 39.0879 67.5668 39.487 67.0901 39.8584C66.8282 40.062 66.5389 40.2444 66.2208 40.4054C65.9073 40.5634 65.5833 40.6953 65.2501 40.8008C64.9133 40.9026 64.5773 40.9759 64.2428 41.0206C63.9078 41.0654 63.5892 41.0729 63.2867 41.0432L63.1075 39.7207C63.0993 39.6221 63.1144 39.5241 63.1523 39.4266C63.1912 39.3225 63.2547 39.236 63.3429 39.1671C63.4585 39.0773 63.6043 39.0224 63.7803 39.0026C63.9599 38.9798 64.1596 38.9539 64.379 38.9248C64.6025 38.8928 64.8406 38.8369 65.0933 38.7571C65.3465 38.6774 65.6038 38.5358 65.8652 38.3321C66.219 38.0566 66.4301 37.7688 66.4987 37.4686C66.5641 37.1648 66.4562 36.8508 66.1756 36.5265C66.0129 36.3386 65.8269 36.2275 65.6171 36.1935C65.4073 36.1594 65.1802 36.1726 64.9366 36.233C64.6962 36.2904 64.4393 36.3764 64.1651 36.4912C63.8909 36.6059 63.6066 36.7196 63.3114 36.8323C63.0129 36.9413 62.7076 37.031 62.395 37.1015C62.0797 37.1684 61.7597 37.1859 61.4362 37.1542C61.113 37.1157 60.7876 37.0113 60.4599 36.8409C60.1291 36.6668 59.8009 36.3918 59.4755 36.016C59.2136 35.7138 59.0221 35.3696 58.9001 34.9833C58.7781 34.5971 58.7429 34.1957 58.7945 33.7793C58.8462 33.3628 58.9933 32.949 59.236 32.5378C59.4759 32.123 59.8265 31.7359 60.2876 31.3765C60.5454 31.1758 60.8132 31.0014 61.0902 30.8533C61.3685 30.6985 61.6505 30.5744 61.9366 30.4811C62.22 30.3841 62.502 30.3157 62.7826 30.2758C63.0641 30.2292 63.3374 30.2139 63.6025 30.2298L63.8689 31.4749Z" fill="white"/>
<path d="M70.4976 26.8375C70.4451 26.9328 70.3902 27.0208 70.3331 27.1014C70.276 27.1821 70.2115 27.256 70.1398 27.3231C70.3276 27.2533 70.5338 27.2182 70.7577 27.218L72.026 27.1848L72.0676 28.1788L70.7993 28.212C70.5726 28.2254 70.3738 28.2104 70.2024 28.1669C70.3514 28.2812 70.4821 28.4209 70.5945 28.586L71.3157 29.6427L70.4062 30.2012L69.6933 29.1565C69.6357 29.072 69.5831 28.9869 69.5365 28.9013C69.494 28.8131 69.4606 28.7252 69.436 28.6374C69.4204 28.7269 69.3962 28.8162 69.3624 28.9053C69.3263 28.9904 69.2861 29.0781 69.2413 29.1683L68.6819 30.24L67.7427 29.7968L68.3025 28.7251C68.4013 28.533 68.5173 28.3704 68.6503 28.2373C68.563 28.2737 68.4671 28.3013 68.3619 28.32C68.2582 28.3323 68.1517 28.3405 68.0429 28.3447L66.7742 28.3778L66.7285 27.3778L68.0009 27.3507C68.2276 27.3372 68.4264 27.3522 68.5978 27.3957C68.4488 27.2814 68.3181 27.1417 68.2056 26.9766L67.4844 25.9199L68.3939 25.3614L69.1069 26.4061C69.1649 26.4906 69.2148 26.577 69.2573 26.6651C69.3039 26.7507 69.3395 26.8374 69.3642 26.9252C69.3798 26.8357 69.4053 26.7484 69.4419 26.6633C69.4753 26.5742 69.5141 26.4846 69.5589 26.3944L70.1142 25.3166L71.0575 25.7658L70.4976 26.8375Z" fill="white"/>
<path d="M85.6642 17.5923L90.1961 27.2314L88.1888 28.08L85.5828 22.5361C85.5225 22.4082 85.4594 22.2683 85.3936 22.1165C85.3319 21.9627 85.2739 21.8049 85.219 21.6429L84.9425 27.7002C84.9343 27.8888 84.879 28.0522 84.7775 28.1904C84.6802 28.3267 84.5435 28.432 84.3685 28.506L84.0586 28.637C83.8836 28.7111 83.7081 28.7378 83.5312 28.7173C83.3594 28.6948 83.1967 28.6236 83.0431 28.5034L78.1012 24.6372C78.1894 24.7903 78.274 24.9421 78.3558 25.0927C78.4353 25.2388 78.5048 25.3758 78.5651 25.5037L81.1716 31.0476L79.1647 31.8964L74.6328 22.2574L76.3704 21.5226C76.4692 21.4808 76.5555 21.4469 76.6296 21.4209C76.7077 21.3931 76.7813 21.3779 76.8503 21.3752C76.9189 21.3726 76.987 21.386 77.0551 21.4156C77.125 21.4388 77.2022 21.4828 77.2863 21.5476L82.1103 25.3686C82.2789 25.4982 82.4462 25.6363 82.6121 25.783C82.7826 25.9278 82.9503 26.0788 83.1158 26.2362C83.1007 26.0099 83.0902 25.787 83.0842 25.5676C83.0824 25.3462 83.0893 25.1319 83.1048 24.9244L83.3342 18.9901C83.3397 18.8873 83.3548 18.8044 83.3786 18.7413C83.4055 18.6719 83.4425 18.6138 83.4905 18.5671C83.5385 18.5204 83.5975 18.4796 83.6674 18.4448C83.7414 18.4081 83.8278 18.3689 83.927 18.3271L85.6642 17.5923Z" fill="white"/>
<path d="M97.7079 21.266L96.0109 18.6691C95.893 18.5066 95.7623 18.3145 95.6188 18.093C95.4744 17.8667 95.3249 17.6215 95.1704 17.3575C95.1741 17.6619 95.1677 17.9461 95.1508 18.2102C95.1343 18.4744 95.1138 18.7044 95.0891 18.9003L94.8674 21.9322L97.7079 21.266ZM102.558 24.3092L100.693 24.7467C100.484 24.7957 100.303 24.7881 100.151 24.7238C99.9967 24.6548 99.8669 24.5527 99.7609 24.4174L98.6804 22.7643L94.7363 23.6893L94.5923 25.6296C94.5749 25.7739 94.5109 25.9164 94.4017 26.0571C94.2961 26.192 94.1435 26.2829 93.9442 26.3296L92.0645 26.7705L93.3926 15.5227L95.8555 14.9449L102.558 24.3092Z" fill="white"/>
<path d="M113.642 18.0329C113.711 18.7998 113.641 19.5193 113.432 20.1913C113.228 20.858 112.907 21.4487 112.468 21.9633C112.03 22.473 111.482 22.8889 110.826 23.2109C110.174 23.5277 109.435 23.7195 108.609 23.7863L104.484 24.1202L103.529 13.5126L107.654 13.1787C108.481 13.1119 109.244 13.1846 109.943 13.3969C110.647 13.6088 111.261 13.9307 111.784 14.3626C112.308 14.7944 112.73 15.3249 113.051 15.9541C113.376 16.578 113.573 17.2709 113.642 18.0329ZM111.12 18.237C111.073 17.7129 110.962 17.2451 110.788 16.8339C110.614 16.4226 110.385 16.0818 110.101 15.8114C109.822 15.5358 109.491 15.3353 109.107 15.2099C108.724 15.0796 108.296 15.0335 107.825 15.0716L106.178 15.205L106.792 22.0267L108.439 21.8934C108.91 21.8552 109.323 21.7436 109.679 21.5584C110.033 21.3683 110.324 21.1175 110.551 20.8058C110.781 20.4889 110.946 20.1138 111.044 19.6805C111.142 19.2472 111.167 18.7661 111.12 18.237Z" fill="white"/>
<path d="M120.183 14.8735L120.019 17.3535L123.363 17.5511L123.243 19.3747L119.9 19.177L119.733 21.708L124.099 21.9661L123.974 23.8626L117.127 23.4578L117.825 12.8303L124.673 13.2351L124.548 15.1315L120.183 14.8735Z" fill="white"/>
<path d="M135.666 17.0473L134.966 19.6521L138.505 20.5085L138.009 22.3509L134.47 21.4945L133.393 25.497L130.977 24.9123L133.743 14.6273L140.41 16.2403L139.916 18.0757L135.666 17.0473Z" fill="white"/>
<path d="M145.114 23.1019C145.429 23.2219 145.711 23.2854 145.962 23.2926C146.22 23.297 146.448 23.2566 146.648 23.1715C146.849 23.0863 147.02 22.9639 147.162 22.8043C147.305 22.6402 147.423 22.4505 147.515 22.2351C147.697 21.8044 147.696 21.4132 147.512 21.0615C147.333 20.7114 146.945 20.4225 146.348 20.1948L145.419 19.8402L144.186 22.7473L145.114 23.1019ZM147.815 30.1692L145.724 29.3713C145.337 29.2235 145.121 28.9739 145.074 28.6225L144.628 25.1449C144.602 24.9943 144.553 24.8737 144.48 24.7834C144.409 24.6886 144.285 24.6073 144.107 24.5395L143.52 24.3152L141.981 27.9424L139.672 27.061L143.832 17.2563L147.07 18.4923C147.79 18.7669 148.371 19.0748 148.814 19.4158C149.263 19.754 149.592 20.1141 149.8 20.496C150.013 20.8796 150.117 21.2765 150.113 21.6865C150.108 22.0966 150.017 22.5102 149.84 22.9274C149.705 23.2459 149.534 23.53 149.328 23.7796C149.121 24.0292 148.882 24.243 148.611 24.4209C148.342 24.5944 148.042 24.7275 147.711 24.8203C147.385 24.9149 147.035 24.961 146.66 24.9587C146.778 25.0924 146.878 25.2427 146.961 25.4097C147.046 25.5723 147.107 25.7521 147.145 25.9491L147.815 30.1692Z" fill="white"/>
<path d="M162.127 31.8601C161.714 32.51 161.213 33.0481 160.625 33.4744C160.041 33.9032 159.407 34.2055 158.724 34.3814C158.044 34.5532 157.333 34.5869 156.591 34.4827C155.854 34.3809 155.126 34.1243 154.406 33.713C153.687 33.3017 153.106 32.8094 152.662 32.2363C152.219 31.6631 151.916 31.0499 151.755 30.3967C151.6 29.7417 151.584 29.068 151.706 28.3755C151.833 27.6855 152.103 27.0155 152.517 26.3656C152.93 25.7157 153.428 25.1764 154.012 24.7477C154.601 24.3214 155.235 24.0223 155.915 23.8505C156.6 23.6811 157.313 23.6486 158.054 23.7528C158.796 23.8571 159.526 24.1149 160.246 24.5262C160.965 24.9375 161.543 25.4306 161.98 26.0054C162.423 26.5786 162.723 27.1906 162.881 27.8414C163.038 28.4923 163.054 29.1627 162.927 29.8528C162.804 30.5452 162.537 31.2143 162.127 31.8601ZM159.93 30.6044C160.213 30.1602 160.407 29.7273 160.514 29.3059C160.622 28.8803 160.643 28.48 160.576 28.105C160.513 27.7324 160.362 27.3883 160.124 27.0728C159.886 26.7573 159.562 26.4823 159.152 26.2476C158.737 26.0104 158.324 25.8646 157.915 25.8099C157.51 25.7576 157.117 25.7908 156.735 25.9093C156.359 26.0303 155.997 26.2359 155.651 26.526C155.308 26.812 154.995 27.1771 154.713 27.6213C154.428 28.0696 154.231 28.5066 154.122 28.9322C154.016 29.3537 153.994 29.7507 154.057 30.1233C154.124 30.4983 154.277 30.8436 154.515 31.1591C154.76 31.4729 155.09 31.7483 155.505 31.9854C155.915 32.2201 156.321 32.3656 156.724 32.422C157.129 32.4743 157.521 32.4399 157.898 32.3189C158.279 32.2003 158.641 31.9981 158.984 31.7121C159.33 31.422 159.646 31.0528 159.93 30.6044Z" fill="white"/>
<path d="M177.972 37.7828L170.64 45.51L168.983 44.0955L173.2 39.6512C173.298 39.5487 173.405 39.4389 173.523 39.3218C173.644 39.2079 173.771 39.0955 173.904 38.9844L167.982 41.1198C167.798 41.1866 167.618 41.2028 167.443 41.1683C167.271 41.137 167.113 41.0597 166.969 40.9362L166.713 40.7179C166.568 40.5945 166.469 40.4519 166.414 40.2902C166.363 40.1316 166.363 39.962 166.414 39.7813L168.041 33.9615C167.931 34.0982 167.821 34.2316 167.711 34.3617C167.605 34.4883 167.503 34.6028 167.405 34.7053L163.188 39.1497L161.531 37.7352L168.863 30.008L170.298 31.2326C170.38 31.3022 170.448 31.3641 170.504 31.4183C170.564 31.4756 170.61 31.5337 170.641 31.5925C170.672 31.6513 170.688 31.716 170.688 31.7865C170.696 31.8567 170.686 31.9412 170.659 32.04L169.026 37.7393C168.973 37.9369 168.91 38.1367 168.84 38.3386C168.772 38.5437 168.698 38.7491 168.617 38.955C168.828 38.8532 169.037 38.7565 169.245 38.665C169.456 38.5766 169.664 38.4985 169.869 38.4306L175.653 36.3024C175.754 36.2668 175.84 36.2472 175.91 36.2435C175.988 36.2394 176.059 36.2491 176.124 36.2725C176.189 36.296 176.253 36.3313 176.316 36.3784C176.382 36.4287 176.456 36.4886 176.538 36.5582L177.972 37.7828Z" fill="white"/>
<path d="M204.75 58.4785L175.5 102.337H190.125C190.125 142.641 157.319 175.435 117.001 175.435C92.1908 175.435 70.2985 162.956 57.0716 144.012L40.0195 169.582C58.7996 191.037 86.3074 204.674 117.001 204.674C173.451 204.674 219.375 158.767 219.375 102.337H234L204.75 58.4785Z" fill="#007855"/>
<path d="M136.216 186.997C135.589 187.142 135.176 187.396 134.975 187.758C134.775 188.119 134.741 188.567 134.876 189.101C134.935 189.338 135.025 189.545 135.144 189.722C135.264 189.899 135.415 190.039 135.597 190.142C135.775 190.251 135.985 190.317 136.227 190.341C136.464 190.366 136.735 190.343 137.039 190.273L138.293 189.982L137.47 186.707L136.216 186.997ZM137.489 192.066C136.758 192.236 136.109 192.294 135.543 192.24C134.973 192.192 134.482 192.056 134.068 191.832C133.651 191.609 133.309 191.31 133.045 190.936C132.78 190.562 132.588 190.137 132.468 189.66C132.339 189.144 132.303 188.652 132.361 188.184C132.419 187.715 132.581 187.288 132.845 186.901C133.11 186.515 133.484 186.173 133.967 185.876C134.447 185.585 135.046 185.356 135.763 185.189L137.016 184.898L136.149 181.446L138.557 180.888L141.151 191.217L137.489 192.066Z" fill="white"/>
<path d="M122.501 185.517L122.277 183.556L128.663 182.883L129.871 193.464L127.413 193.724L126.429 185.103L122.501 185.517Z" fill="white"/>
<path d="M114.586 187.571L115.501 190.509C115.57 190.696 115.643 190.915 115.719 191.165C115.796 191.42 115.872 191.695 115.948 191.989C116.028 191.694 116.113 191.42 116.202 191.169C116.291 190.917 116.374 190.7 116.452 190.516L117.503 187.637L114.586 187.571ZM110.76 183.412L112.675 183.456C112.89 183.461 113.061 183.513 113.191 183.614C113.32 183.719 113.416 183.85 113.481 184.007L114.064 185.878L118.114 185.97L118.788 184.128C118.846 183.992 118.946 183.87 119.09 183.762C119.229 183.657 119.401 183.608 119.606 183.612L121.536 183.656L117.152 194.21L114.622 194.152L110.76 183.412Z" fill="white"/>
<path d="M102.121 190.599C102.213 190.495 102.304 190.42 102.396 190.375C102.482 190.329 102.588 190.316 102.714 190.335C102.825 190.352 102.939 190.404 103.058 190.492C103.172 190.583 103.303 190.684 103.453 190.796C103.597 190.907 103.768 191.012 103.964 191.111C104.159 191.215 104.389 191.288 104.654 191.328C105.112 191.399 105.47 191.352 105.729 191.19C105.983 191.032 106.137 190.787 106.193 190.455C106.228 190.244 106.189 190.058 106.077 189.898C105.966 189.737 105.81 189.59 105.61 189.456C105.405 189.321 105.17 189.189 104.905 189.059C104.634 188.934 104.361 188.796 104.084 188.645C103.807 188.499 103.54 188.335 103.284 188.153C103.023 187.969 102.802 187.753 102.621 187.503C102.435 187.253 102.301 186.961 102.218 186.628C102.135 186.3 102.129 185.917 102.202 185.479C102.282 184.994 102.442 184.552 102.681 184.155C102.92 183.758 103.227 183.426 103.603 183.158C103.973 182.895 104.409 182.707 104.912 182.597C105.409 182.491 105.956 182.484 106.554 182.576C106.881 182.626 107.21 182.711 107.541 182.831C107.868 182.95 108.18 183.094 108.478 183.263C108.775 183.437 109.05 183.63 109.301 183.841C109.552 184.052 109.764 184.277 109.937 184.515L109.025 185.543C108.954 185.616 108.868 185.672 108.768 185.711C108.662 185.754 108.553 185.767 108.442 185.75C108.298 185.728 108.161 185.66 108.031 185.546C107.897 185.432 107.748 185.305 107.583 185.167C107.413 185.027 107.216 184.893 106.99 184.765C106.764 184.637 106.488 184.547 106.16 184.497C105.717 184.429 105.356 184.473 105.078 184.627C104.8 184.786 104.625 185.077 104.555 185.5C104.514 185.746 104.549 185.955 104.658 186.13C104.768 186.305 104.925 186.459 105.13 186.594C105.329 186.728 105.563 186.856 105.83 186.976C106.096 187.095 106.369 187.223 106.648 187.36C106.926 187.501 107.193 187.661 107.45 187.838C107.707 188.021 107.927 188.239 108.112 188.494C108.291 188.754 108.421 189.059 108.501 189.412C108.58 189.769 108.578 190.193 108.497 190.683C108.431 191.077 108.288 191.45 108.066 191.8C107.845 192.151 107.556 192.449 107.199 192.695C106.842 192.941 106.425 193.116 105.948 193.22C105.47 193.329 104.942 193.339 104.364 193.251C104.041 193.201 103.732 193.126 103.437 193.027C103.137 192.932 102.858 192.812 102.6 192.669C102.341 192.531 102.105 192.374 101.892 192.198C101.674 192.027 101.485 191.84 101.326 191.638L102.121 190.599Z" fill="white"/>
<path d="M90.748 187.91L93.6337 188.724L96.1711 180.411L98.55 181.082L96.0125 189.395L98.8978 190.208L98.326 192.082L90.1758 189.784L90.748 187.91Z" fill="white"/>
<path d="M88.7684 177.832L91.0832 178.738L86.9242 188.544L84.6094 187.637L88.7684 177.832Z" fill="white"/>
<path d="M78.2194 175.812C78.1673 175.785 78.1216 175.747 78.0819 175.699C78.0394 175.655 78.0078 175.597 77.9863 175.526L77.6239 174.175C78.2798 173.886 78.9658 173.765 79.6819 173.814C80.3917 173.866 81.1376 174.095 81.92 174.502C82.6375 174.876 83.2148 175.331 83.6512 175.866C84.0813 176.403 84.3765 176.985 84.537 177.612C84.691 178.242 84.7111 178.901 84.5973 179.588C84.4812 180.28 84.2312 180.966 83.8482 181.645C83.4579 182.337 82.9853 182.911 82.4305 183.369C81.8734 183.832 81.2687 184.165 80.6166 184.369C79.9644 184.573 79.2829 184.641 78.5718 184.572C77.8611 184.504 77.1573 184.288 76.4617 183.926C76.107 183.741 75.7921 183.536 75.5165 183.31C75.2346 183.086 74.9887 182.848 74.7784 182.596C74.5659 182.348 74.3881 182.088 74.2455 181.815C74.1025 181.543 73.9928 181.272 73.916 181.001L75.2048 180.412C75.2857 180.378 75.373 180.352 75.4667 180.335C75.5581 180.321 75.6619 180.346 75.7789 180.406C75.8566 180.447 75.9206 180.502 75.9704 180.572C76.0206 180.642 76.0714 180.721 76.1226 180.808C76.1719 180.899 76.2281 180.998 76.2921 181.102C76.3497 181.209 76.4297 181.32 76.533 181.434C76.6299 181.55 76.7551 181.67 76.9087 181.794C77.0581 181.916 77.2473 182.036 77.4767 182.156C77.8396 182.345 78.2098 182.453 78.5864 182.479C78.9589 182.502 79.3273 182.445 79.6915 182.305C80.0489 182.167 80.3926 181.945 80.7217 181.639C81.0443 181.335 81.3387 180.947 81.6047 180.476C81.8725 180 82.0461 179.544 82.1248 179.107C82.1993 178.668 82.1956 178.263 82.1147 177.891C82.0265 177.521 81.8684 177.191 81.6403 176.902C81.4118 176.613 81.1248 176.378 80.7788 176.198C80.58 176.095 80.3935 176.008 80.2198 175.94C80.0434 175.875 79.872 175.827 79.7057 175.795C79.5366 175.768 79.3689 175.757 79.203 175.764C79.0343 175.775 78.8529 175.804 78.6586 175.851C78.5828 175.867 78.5074 175.872 78.4324 175.866C78.3552 175.864 78.2843 175.846 78.2194 175.812Z" fill="white"/>
<path d="M202.228 131.654C202.102 131.965 202.033 132.244 202.022 132.491C202.013 132.743 202.051 132.967 202.135 133.161C202.219 133.355 202.342 133.52 202.502 133.656C202.667 133.792 202.859 133.903 203.078 133.987C203.514 134.156 203.913 134.145 204.274 133.956C204.634 133.771 204.934 133.383 205.175 132.792L205.55 131.871L202.603 130.733L202.228 131.654ZM194.982 134.481L195.827 132.409C195.982 132.026 196.24 131.806 196.599 131.752L200.152 131.228C200.306 131.199 200.43 131.147 200.523 131.073C200.62 131.001 200.705 130.877 200.777 130.701L201.014 130.119L197.337 128.699L198.269 126.411L208.208 130.249L206.901 133.458C206.61 134.171 206.288 134.749 205.934 135.193C205.582 135.642 205.211 135.973 204.818 136.188C204.424 136.406 204.017 136.518 203.6 136.524C203.182 136.53 202.761 136.451 202.338 136.287C202.015 136.163 201.728 136.002 201.476 135.806C201.225 135.609 201.01 135.38 200.833 135.119C200.66 134.858 200.528 134.567 200.438 134.245C200.347 133.928 200.305 133.585 200.313 133.217C200.175 133.336 200.02 133.439 199.848 133.524C199.681 133.611 199.497 133.675 199.296 133.718L194.982 134.481Z" fill="white"/>
<path d="M200.77 141.856L198.589 140.663L196.955 143.585L195.352 142.708L196.985 139.785L194.76 138.567L192.627 142.383L190.959 141.47L194.304 135.484L203.65 140.599L200.304 146.585L198.637 145.672L200.77 141.856Z" fill="white"/>
<path d="M187.628 150.776C187.593 150.823 187.548 150.863 187.494 150.895C187.443 150.931 187.381 150.954 187.306 150.965L185.895 151.138C185.7 150.459 185.681 149.773 185.836 149.08C185.991 148.395 186.332 147.697 186.857 146.988C187.338 146.338 187.88 145.836 188.482 145.482C189.085 145.134 189.713 144.925 190.368 144.852C191.023 144.786 191.688 144.855 192.362 145.059C193.04 145.265 193.692 145.6 194.318 146.065C194.956 146.539 195.464 147.077 195.843 147.68C196.225 148.286 196.471 148.921 196.579 149.585C196.689 150.248 196.656 150.923 196.483 151.608C196.309 152.292 195.989 152.95 195.522 153.58C195.284 153.902 195.031 154.182 194.764 154.42C194.498 154.665 194.222 154.873 193.937 155.045C193.657 155.219 193.369 155.357 193.075 155.46C192.78 155.563 192.491 155.634 192.208 155.672L191.806 154.336C191.783 154.252 191.77 154.163 191.766 154.069C191.767 153.979 191.806 153.881 191.885 153.775C191.937 153.704 192.002 153.649 192.079 153.61C192.157 153.57 192.244 153.532 192.339 153.493C192.438 153.457 192.545 153.415 192.66 153.367C192.776 153.325 192.898 153.262 193.028 153.176C193.159 153.097 193.299 152.991 193.446 152.858C193.59 152.728 193.739 152.56 193.893 152.352C194.137 152.023 194.3 151.677 194.382 151.313C194.46 150.952 194.456 150.585 194.369 150.211C194.283 149.843 194.111 149.478 193.852 149.116C193.594 148.76 193.247 148.421 192.813 148.098C192.375 147.773 191.942 147.542 191.515 147.407C191.084 147.275 190.676 147.224 190.291 147.254C189.906 147.29 189.552 147.399 189.227 147.584C188.903 147.768 188.625 148.017 188.393 148.33C188.259 148.51 188.145 148.681 188.051 148.841C187.96 149.004 187.886 149.165 187.83 149.323C187.777 149.485 187.742 149.647 187.724 149.81C187.711 149.976 187.713 150.157 187.732 150.353C187.736 150.428 187.73 150.503 187.713 150.575C187.699 150.65 187.671 150.717 187.628 150.776Z" fill="white"/>
<path d="M183.111 157.62L180.229 154.774L181.944 152.995L184.826 155.841L192.203 157.701L190.691 159.27C190.542 159.424 190.389 159.509 190.231 159.525C190.074 159.547 189.911 159.534 189.743 159.484L186.492 158.39C186.23 158.31 185.988 158.232 185.764 158.154C185.544 158.081 185.334 158 185.134 157.913C185.233 158.112 185.324 158.319 185.409 158.533C185.494 158.754 185.577 158.994 185.659 159.253L186.829 162.505C186.851 162.574 186.867 162.648 186.879 162.728C186.89 162.808 186.891 162.888 186.882 162.967C186.872 163.054 186.85 163.137 186.813 163.218C186.776 163.305 186.722 163.385 186.651 163.459L185.129 165.038L183.111 157.62Z" fill="white"/>
<path d="M173.37 164.452C173.324 164.489 173.271 164.517 173.211 164.534C173.153 164.556 173.088 164.562 173.013 164.553L171.62 164.356C171.609 163.643 171.768 162.969 172.095 162.334C172.421 161.706 172.927 161.114 173.613 160.558C174.241 160.049 174.889 159.699 175.556 159.51C176.223 159.327 176.878 159.285 177.523 159.384C178.166 159.489 178.784 159.729 179.376 160.102C179.971 160.479 180.508 160.976 180.986 161.591C181.473 162.219 181.82 162.876 182.025 163.562C182.234 164.252 182.305 164.935 182.237 165.611C182.169 166.287 181.964 166.936 181.621 167.559C181.278 168.182 180.802 168.741 180.192 169.235C179.881 169.486 179.567 169.694 179.25 169.857C178.932 170.027 178.614 170.159 178.298 170.252C177.985 170.35 177.674 170.41 177.366 170.434C177.057 170.458 176.763 170.452 176.482 170.416L176.444 169.008C176.444 168.92 176.454 168.83 176.475 168.738C176.499 168.65 176.562 168.564 176.664 168.481C176.732 168.426 176.809 168.389 176.893 168.371C176.977 168.353 177.07 168.337 177.171 168.324C177.275 168.315 177.389 168.302 177.511 168.284C177.632 168.274 177.766 168.244 177.912 168.194C178.058 168.151 178.219 168.084 178.394 167.992C178.566 167.903 178.752 167.777 178.953 167.614C179.271 167.357 179.516 167.061 179.688 166.727C179.857 166.395 179.948 166.036 179.962 165.648C179.975 165.268 179.904 164.867 179.75 164.446C179.596 164.032 179.352 163.612 179.02 163.185C178.686 162.753 178.332 162.416 177.958 162.173C177.58 161.934 177.204 161.778 176.827 161.707C176.45 161.642 176.083 161.658 175.725 161.753C175.367 161.849 175.037 162.019 174.734 162.265C174.56 162.406 174.407 162.543 174.275 162.675C174.146 162.81 174.034 162.948 173.939 163.088C173.847 163.232 173.771 163.381 173.712 163.535C173.656 163.693 173.612 163.871 173.579 164.067C173.563 164.142 173.538 164.212 173.503 164.279C173.471 164.349 173.426 164.407 173.37 164.452Z" fill="white"/>
<path d="M165.548 169.726L164.381 168.134L169.453 164.2L175.75 172.791L173.798 174.306L168.667 167.306L165.548 169.726Z" fill="white"/>
<path d="M165.521 177.946L164.185 175.85L161.421 177.741L160.439 176.2L163.202 174.308L161.839 172.169L158.23 174.638L157.209 173.035L162.869 169.163L168.594 178.145L162.934 182.018L161.912 180.415L165.521 177.946Z" fill="white"/>
<path d="M148.31 184.179C147.98 183.483 147.795 182.779 147.753 182.066C147.709 181.36 147.8 180.681 148.024 180.028C148.25 179.38 148.609 178.779 149.101 178.224C149.591 177.676 150.204 177.212 150.941 176.833L154.62 174.938L159.184 184.562L155.505 186.457C154.768 186.836 154.041 187.06 153.324 187.128C152.602 187.198 151.926 187.13 151.294 186.924C150.662 186.718 150.09 186.38 149.576 185.91C149.06 185.447 148.638 184.87 148.31 184.179ZM150.559 183.021C150.785 183.496 151.049 183.894 151.352 184.215C151.655 184.536 151.984 184.769 152.339 184.915C152.692 185.067 153.066 185.129 153.463 185.1C153.861 185.076 154.27 184.955 154.691 184.739L156.16 183.983L153.225 177.794L151.755 178.55C151.335 178.767 150.993 179.03 150.731 179.341C150.47 179.656 150.29 180.003 150.19 180.384C150.088 180.771 150.067 181.187 150.127 181.632C150.188 182.078 150.331 182.54 150.559 183.021Z" fill="white"/>
</svg>
